<svg width="119" height="101" viewBox="0 0 119 101" fill="none" xmlns="http://www.w3.org/2000/svg">
<path d="M38.73 74V67H43.34V68.09H40.08V69.92H43.04V70.97H40.08V72.91H43.34V74H38.73ZM44.1384 74L45.9384 71.38L44.1384 68.78H45.5984L46.7584 70.52L47.9184 68.78H49.3684L47.5784 71.38L49.3684 74H47.9184L46.7584 72.22L45.6084 74H44.1384ZM52.4577 74.12C51.951 74.12 51.501 74.0067 51.1077 73.78C50.721 73.5467 50.4177 73.2267 50.1977 72.82C49.9777 72.4133 49.8677 71.9533 49.8677 71.44C49.8677 70.8933 49.9777 70.4133 50.1977 70C50.4177 69.58 50.721 69.2533 51.1077 69.02C51.501 68.78 51.951 68.66 52.4577 68.66C53.111 68.66 53.6577 68.8333 54.0977 69.18C54.5377 69.5267 54.8177 70.0067 54.9377 70.62H53.5077C53.4477 70.3667 53.321 70.17 53.1277 70.03C52.941 69.89 52.7143 69.82 52.4477 69.82C52.1943 69.82 51.9777 69.8833 51.7977 70.01C51.6177 70.1367 51.4777 70.3167 51.3777 70.55C51.2843 70.7833 51.2377 71.0633 51.2377 71.39C51.2377 71.6367 51.2643 71.86 51.3177 72.06C51.3777 72.2533 51.4577 72.4167 51.5577 72.55C51.6643 72.6833 51.791 72.7867 51.9377 72.86C52.091 72.9333 52.261 72.97 52.4477 72.97C52.6277 72.97 52.7877 72.94 52.9277 72.88C53.0743 72.8133 53.1977 72.72 53.2977 72.6C53.4043 72.48 53.4743 72.3367 53.5077 72.17H54.9377C54.8177 72.7633 54.5343 73.2367 54.0877 73.59C53.6477 73.9433 53.1043 74.12 52.4577 74.12ZM58.5307 74.12C58.0307 74.12 57.5874 74.01 57.2007 73.79C56.8207 73.5633 56.524 73.2467 56.3107 72.84C56.0974 72.4333 55.9907 71.9667 55.9907 71.44C55.9907 70.9 56.094 70.42 56.3007 70C56.514 69.58 56.8107 69.2533 57.1907 69.02C57.5774 68.78 58.0274 68.66 58.5407 68.66C59.054 68.66 59.494 68.7733 59.8607 69C60.2274 69.2267 60.5074 69.5367 60.7007 69.93C60.9007 70.3167 61.0007 70.7567 61.0007 71.25C61.0007 71.3167 61.0007 71.39 61.0007 71.47C61.0007 71.55 60.994 71.6333 60.9807 71.72H56.9507V70.9H59.6507C59.6374 70.54 59.5274 70.26 59.3207 70.06C59.114 69.86 58.854 69.76 58.5407 69.76C58.314 69.76 58.1074 69.8167 57.9207 69.93C57.734 70.0433 57.5874 70.2133 57.4807 70.44C57.374 70.66 57.3207 70.9433 57.3207 71.29V71.58C57.3207 71.8733 57.3674 72.1267 57.4607 72.34C57.5607 72.5533 57.7007 72.72 57.8807 72.84C58.0607 72.96 58.274 73.02 58.5207 73.02C58.7874 73.02 58.994 72.9733 59.1407 72.88C59.2874 72.7867 59.404 72.66 59.4907 72.5H60.8607C60.7674 72.8 60.6107 73.0733 60.3907 73.32C60.1774 73.5667 59.914 73.7633 59.6007 73.91C59.2874 74.05 58.9307 74.12 58.5307 74.12ZM62.1666 74V66.8H63.5166V74H62.1666ZM64.8912 74V66.8H66.2412V74H64.8912ZM69.9858 74.12C69.4858 74.12 69.0424 74.01 68.6558 73.79C68.2758 73.5633 67.9791 73.2467 67.7658 72.84C67.5524 72.4333 67.4458 71.9667 67.4458 71.44C67.4458 70.9 67.5491 70.42 67.7558 70C67.9691 69.58 68.2658 69.2533 68.6458 69.02C69.0324 68.78 69.4824 68.66 69.9958 68.66C70.5091 68.66 70.9491 68.7733 71.3158 69C71.6824 69.2267 71.9624 69.5367 72.1558 69.93C72.3558 70.3167 72.4558 70.7567 72.4558 71.25C72.4558 71.3167 72.4558 71.39 72.4558 71.47C72.4558 71.55 72.4491 71.6333 72.4358 71.72H68.4058V70.9H71.1058C71.0924 70.54 70.9824 70.26 70.7758 70.06C70.5691 69.86 70.3091 69.76 69.9958 69.76C69.7691 69.76 69.5624 69.8167 69.3758 69.93C69.1891 70.0433 69.0424 70.2133 68.9358 70.44C68.8291 70.66 68.7758 70.9433 68.7758 71.29V71.58C68.7758 71.8733 68.8224 72.1267 68.9158 72.34C69.0158 72.5533 69.1558 72.72 69.3358 72.84C69.5158 72.96 69.7291 73.02 69.9758 73.02C70.2424 73.02 70.4491 72.9733 70.5958 72.88C70.7424 72.7867 70.8591 72.66 70.9458 72.5H72.3158C72.2224 72.8 72.0658 73.0733 71.8458 73.32C71.6324 73.5667 71.3691 73.7633 71.0558 73.91C70.7424 74.05 70.3858 74.12 69.9858 74.12ZM73.6216 74V68.78H74.8016L74.9016 69.57C75.0483 69.29 75.2616 69.07 75.5416 68.91C75.8216 68.7433 76.1583 68.66 76.5516 68.66C76.9583 68.66 77.305 68.7433 77.5916 68.91C77.8783 69.0767 78.0983 69.3167 78.2516 69.63C78.405 69.9433 78.4816 70.3267 78.4816 70.78V74H77.1316V70.91C77.1316 70.5567 77.0416 70.2833 76.8616 70.09C76.6883 69.8967 76.435 69.8 76.1016 69.8C75.895 69.8 75.705 69.8467 75.5316 69.94C75.3583 70.0333 75.2216 70.17 75.1216 70.35C75.0216 70.53 74.9716 70.7467 74.9716 71V74H73.6216ZM82.1819 74C81.8285 74 81.5185 73.9467 81.2519 73.84C80.9919 73.7267 80.7885 73.5433 80.6419 73.29C80.4952 73.03 80.4219 72.6767 80.4219 72.23V69.91H79.5219V68.78H80.4219L80.5719 67.33H81.7719V68.78H83.1219V69.91H81.7719V72.25C81.7719 72.4767 81.8219 72.6333 81.9219 72.72C82.0219 72.8067 82.1919 72.85 82.4319 72.85H83.1419V74H82.1819Z" fill="#70CF97"/>
<path d="M49.224 45V42.968H43.72V41.256L48.936 33.8H51.368V41.096H52.84V42.968H51.368V45H49.224ZM46.024 41.096H49.368V36.184L46.024 41.096ZM58.5103 45.192C57.6996 45.192 56.9956 45.048 56.3983 44.76C55.8116 44.472 55.3476 44.0773 55.0063 43.576C54.6756 43.0747 54.4836 42.504 54.4303 41.864H56.5423C56.6276 42.28 56.8463 42.632 57.1983 42.92C57.5503 43.208 57.9929 43.352 58.5263 43.352C58.9103 43.352 59.2463 43.256 59.5343 43.064C59.8223 42.872 60.0463 42.6107 60.2063 42.28C60.3663 41.9493 60.4463 41.5813 60.4463 41.176C60.4463 40.7387 60.3609 40.3653 60.1903 40.056C60.0303 39.7467 59.8063 39.512 59.5183 39.352C59.2409 39.1813 58.9156 39.096 58.5423 39.096C58.0943 39.096 57.7049 39.208 57.3743 39.432C57.0436 39.6453 56.8089 39.9067 56.6703 40.216H54.5903L55.5182 33.8H61.8063V35.688H57.1343L56.6543 38.168C56.8889 37.9227 57.2036 37.7253 57.5983 37.576C57.9929 37.416 58.4356 37.336 58.9263 37.336C59.5343 37.336 60.0623 37.4427 60.5103 37.656C60.9583 37.8587 61.3316 38.1413 61.6302 38.504C61.9289 38.856 62.1529 39.2613 62.3023 39.72C62.4516 40.1787 62.5263 40.6533 62.5263 41.144C62.5263 41.7413 62.4303 42.2853 62.2383 42.776C62.0463 43.2667 61.7689 43.6933 61.4062 44.056C61.0543 44.4187 60.6329 44.7013 60.1423 44.904C59.6516 45.096 59.1076 45.192 58.5103 45.192ZM66.3194 45L72.6074 33.8H74.7194L68.4314 45H66.3194ZM74.3034 45.192C73.7914 45.192 73.322 45.08 72.8954 44.856C72.4794 44.6213 72.1434 44.2907 71.8874 43.864C71.642 43.4267 71.5194 42.9147 71.5194 42.328C71.5194 41.7307 71.642 41.2187 71.8874 40.792C72.1434 40.3653 72.4794 40.04 72.8954 39.816C73.322 39.5813 73.7914 39.464 74.3034 39.464C74.8367 39.464 75.306 39.5813 75.7114 39.816C76.1274 40.04 76.458 40.3653 76.7034 40.792C76.9487 41.2187 77.0714 41.7307 77.0714 42.328C77.0714 42.9147 76.9487 43.4267 76.7034 43.864C76.458 44.2907 76.1274 44.6213 75.7114 44.856C75.2954 45.08 74.826 45.192 74.3034 45.192ZM74.2874 43.704C74.5007 43.704 74.6874 43.6507 74.8474 43.544C75.018 43.4373 75.1514 43.2827 75.2474 43.08C75.3434 42.8773 75.3914 42.6267 75.3914 42.328C75.3914 42.0187 75.3434 41.7627 75.2474 41.56C75.1514 41.3467 75.0234 41.1867 74.8634 41.08C74.7034 40.9733 74.5167 40.92 74.3034 40.92C74.1007 40.92 73.914 40.9733 73.7434 41.08C73.5834 41.1867 73.4554 41.3467 73.3594 41.56C73.2634 41.7627 73.2154 42.0187 73.2154 42.328C73.2154 42.6267 73.2634 42.8773 73.3594 43.08C73.4554 43.2827 73.5834 43.4373 73.7434 43.544C73.9034 43.6507 74.0847 43.704 74.2874 43.704ZM66.8154 39.352C66.2927 39.352 65.818 39.2347 65.3914 39C64.9754 38.7653 64.6447 38.4347 64.3994 38.008C64.154 37.5813 64.0314 37.0747 64.0314 36.488C64.0314 35.88 64.154 35.368 64.3994 34.952C64.6447 34.5253 64.9754 34.1947 65.3914 33.96C65.818 33.7253 66.2927 33.608 66.8154 33.608C67.338 33.608 67.8074 33.7253 68.2234 33.96C68.6394 34.1947 68.97 34.5253 69.2154 34.952C69.4607 35.368 69.5834 35.88 69.5834 36.488C69.5834 37.0747 69.4607 37.5813 69.2154 38.008C68.97 38.4347 68.6394 38.7653 68.2234 39C67.8074 39.2347 67.338 39.352 66.8154 39.352ZM66.7994 37.864C67.0127 37.864 67.1994 37.8107 67.3594 37.704C67.53 37.5973 67.658 37.4427 67.7434 37.24C67.8394 37.0373 67.8874 36.7867 67.8874 36.488C67.8874 36.168 67.8394 35.9067 67.7434 35.704C67.658 35.5013 67.53 35.3467 67.3594 35.24C67.1994 35.1333 67.018 35.08 66.8154 35.08C66.6127 35.08 66.426 35.1333 66.2554 35.24C66.0847 35.3467 65.9514 35.5067 65.8554 35.72C65.7594 35.9227 65.7114 36.1787 65.7114 36.488C65.7114 36.7867 65.7594 37.0373 65.8554 37.24C65.9514 37.4427 66.0794 37.5973 66.2394 37.704C66.41 37.8107 66.5967 37.864 66.7994 37.864Z" fill="#242731"/>
<path d="M88.8449 70.8449C94.6488 65.0411 98.6013 57.6465 100.203 49.5962C101.804 41.546 100.982 33.2018 97.841 25.6186C94.7 18.0355 89.3808 11.5541 82.5562 6.99401C75.7315 2.43393 67.7079 3.75066e-07 59.5 0C51.2921 -3.75066e-07 43.2685 2.43393 36.4438 6.99401C29.6192 11.5541 24.3 18.0355 21.159 25.6186C18.018 33.2018 17.1961 41.546 18.7974 49.5962C20.3987 57.6465 24.3512 65.041 30.1551 70.8449L40.2704 60.7296C36.4672 56.9263 33.8771 52.0807 32.8278 46.8054C31.7785 41.5302 32.317 36.0622 34.3753 31.093C36.4337 26.1238 39.9193 21.8766 44.3914 18.8884C48.8636 15.9002 54.1214 14.3053 59.5 14.3053C64.8786 14.3053 70.1364 15.9002 74.6086 18.8884C79.0807 21.8766 82.5664 26.1238 84.6247 31.093C86.683 36.0622 87.2215 41.5302 86.1722 46.8054C85.1229 52.0807 82.5328 56.9263 78.7296 60.7296L88.8449 70.8449Z" fill="#F3F3F3"/>
<path d="M50.088 1.08138C42.8999 2.75522 36.2882 6.31571 30.9345 11.3958C25.5807 16.476 21.6786 22.8919 19.6303 29.9824C17.582 37.0729 17.4616 44.5814 19.2816 51.7338C21.1016 58.8863 24.7961 65.4241 29.9843 70.6732L40.1585 60.617C36.7587 57.1773 34.3377 52.8932 33.1451 48.2062C31.9525 43.5192 32.0313 38.5989 33.3736 33.9526C34.7158 29.3062 37.2729 25.1019 40.7812 21.7729C44.2895 18.4439 48.6221 16.1108 53.3324 15.0139L50.088 1.08138Z" fill="#70CF97"/>
<path d="M0.966 97V87.2H2.856V97H0.966ZM4.73845 97V89.944H6.40445L6.55845 90.882C6.78245 90.546 7.07645 90.28 7.44045 90.084C7.81379 89.8787 8.23845 89.776 8.71445 89.776C9.06912 89.776 9.38645 89.8227 9.66645 89.916C9.94645 90.0093 10.1938 90.1447 10.4085 90.322C10.6325 90.4993 10.8145 90.7233 10.9545 90.994C11.2158 90.6113 11.5565 90.3127 11.9765 90.098C12.3965 89.8833 12.8538 89.776 13.3485 89.776C13.9645 89.776 14.4778 89.902 14.8885 90.154C15.2991 90.3967 15.6071 90.7513 15.8125 91.218C16.0271 91.6847 16.1345 92.2587 16.1345 92.94V97H14.2585V93.108C14.2585 92.548 14.1465 92.1187 13.9225 91.82C13.7078 91.5213 13.3718 91.372 12.9145 91.372C12.6158 91.372 12.3498 91.4467 12.1165 91.596C11.8831 91.7453 11.7011 91.96 11.5705 92.24C11.4491 92.52 11.3885 92.856 11.3885 93.248V97H9.49845V93.108C9.49845 92.548 9.38645 92.1187 9.16245 91.82C8.93845 91.5213 8.59312 91.372 8.12645 91.372C7.83712 91.372 7.57579 91.4467 7.34245 91.596C7.11845 91.7453 6.94112 91.96 6.81045 92.24C6.68912 92.52 6.62845 92.856 6.62845 93.248V97H4.73845ZM17.9181 100.08V89.944H19.5981L19.8081 90.924C19.9575 90.7187 20.1348 90.532 20.3401 90.364C20.5455 90.1867 20.7881 90.0467 21.0681 89.944C21.3575 89.832 21.6935 89.776 22.0761 89.776C22.7388 89.776 23.3221 89.9393 23.8261 90.266C24.3301 90.5927 24.7268 91.036 25.0161 91.596C25.3148 92.1467 25.4641 92.7767 25.4641 93.486C25.4641 94.1953 25.3148 94.83 25.0161 95.39C24.7175 95.9407 24.3161 96.3747 23.8121 96.692C23.3081 97.0093 22.7341 97.168 22.0901 97.168C21.5675 97.168 21.1148 97.0747 20.7321 96.888C20.3588 96.692 20.0508 96.426 19.8081 96.09V100.08H17.9181ZM21.6421 95.516C22.0155 95.516 22.3421 95.432 22.6221 95.264C22.9115 95.096 23.1355 94.858 23.2941 94.55C23.4528 94.242 23.5321 93.8873 23.5321 93.486C23.5321 93.0847 23.4528 92.73 23.2941 92.422C23.1355 92.1047 22.9115 91.862 22.6221 91.694C22.3421 91.5167 22.0155 91.428 21.6421 91.428C21.2781 91.428 20.9515 91.5167 20.6621 91.694C20.3821 91.862 20.1581 92.1 19.9901 92.408C19.8315 92.716 19.7521 93.0707 19.7521 93.472C19.7521 93.8733 19.8315 94.2327 19.9901 94.55C20.1581 94.858 20.3821 95.096 20.6621 95.264C20.9515 95.432 21.2781 95.516 21.6421 95.516ZM27.092 97V89.944H28.772L28.954 91.246C29.122 90.938 29.332 90.6767 29.584 90.462C29.8453 90.2473 30.1393 90.0793 30.466 89.958C30.802 89.8367 31.1706 89.776 31.572 89.776V91.778H30.928C30.648 91.778 30.3866 91.8107 30.144 91.876C29.9106 91.9413 29.7053 92.0487 29.528 92.198C29.3506 92.338 29.2153 92.534 29.122 92.786C29.0286 93.038 28.982 93.3553 28.982 93.738V97H27.092ZM36.0991 97.168C35.3898 97.168 34.7598 97.0187 34.2091 96.72C33.6678 96.412 33.2431 95.9873 32.9351 95.446C32.6364 94.8953 32.4871 94.2607 32.4871 93.542C32.4871 92.8047 32.6364 92.156 32.9351 91.596C33.2431 91.0267 33.6678 90.5833 34.2091 90.266C34.7504 89.9393 35.3804 89.776 36.0991 89.776C36.7991 89.776 37.4104 89.93 37.9331 90.238C38.4558 90.546 38.8618 90.9613 39.1511 91.484C39.4404 92.0067 39.5851 92.5993 39.5851 93.262C39.5851 93.3553 39.5851 93.4627 39.5851 93.584C39.5851 93.696 39.5758 93.8127 39.5571 93.934H33.8311V92.786H37.6811C37.6531 92.3287 37.4898 91.9693 37.1911 91.708C36.9018 91.4467 36.5378 91.316 36.0991 91.316C35.7818 91.316 35.4878 91.3907 35.2171 91.54C34.9464 91.68 34.7318 91.8993 34.5731 92.198C34.4238 92.4967 34.3491 92.8747 34.3491 93.332V93.738C34.3491 94.1207 34.4191 94.4567 34.5591 94.746C34.7084 95.026 34.9138 95.2453 35.1751 95.404C35.4364 95.5533 35.7398 95.628 36.0851 95.628C36.4304 95.628 36.7151 95.5533 36.9391 95.404C37.1724 95.2547 37.3451 95.0633 37.4571 94.83H39.3891C39.2584 95.2687 39.0391 95.6653 38.7311 96.02C38.4231 96.3747 38.0451 96.6547 37.5971 96.86C37.1491 97.0653 36.6498 97.168 36.0991 97.168ZM44.017 97.168C43.373 97.168 42.813 97.0653 42.337 96.86C41.861 96.6547 41.4877 96.37 41.217 96.006C40.9463 95.642 40.7923 95.2313 40.755 94.774H42.631C42.6777 94.9513 42.757 95.1147 42.869 95.264C42.981 95.404 43.1303 95.516 43.317 95.6C43.5037 95.684 43.7277 95.726 43.989 95.726C44.241 95.726 44.4463 95.6933 44.605 95.628C44.7637 95.5533 44.8803 95.4553 44.955 95.334C45.039 95.2127 45.081 95.0867 45.081 94.956C45.081 94.76 45.025 94.6107 44.913 94.508C44.801 94.396 44.6377 94.3073 44.423 94.242C44.2083 94.1767 43.947 94.1113 43.639 94.046C43.303 93.9807 42.9717 93.9013 42.645 93.808C42.3277 93.7053 42.043 93.5793 41.791 93.43C41.539 93.2807 41.3383 93.0893 41.189 92.856C41.0397 92.6227 40.965 92.3333 40.965 91.988C40.965 91.568 41.077 91.1947 41.301 90.868C41.525 90.532 41.8517 90.266 42.281 90.07C42.7103 89.874 43.2283 89.776 43.835 89.776C44.6843 89.776 45.3563 89.9673 45.851 90.35C46.3457 90.7327 46.6397 91.26 46.733 91.932H44.955C44.899 91.7173 44.773 91.5493 44.577 91.428C44.3903 91.2973 44.1383 91.232 43.821 91.232C43.485 91.232 43.2283 91.2927 43.051 91.414C42.8737 91.5353 42.785 91.694 42.785 91.89C42.785 92.0207 42.841 92.1373 42.953 92.24C43.0743 92.3427 43.2423 92.4313 43.457 92.506C43.6717 92.5713 43.933 92.6367 44.241 92.702C44.7823 92.814 45.2583 92.9447 45.669 93.094C46.0797 93.234 46.4017 93.4393 46.635 93.71C46.8683 93.9713 46.985 94.354 46.985 94.858C46.985 95.306 46.8637 95.7073 46.621 96.062C46.3783 96.4073 46.033 96.678 45.585 96.874C45.1463 97.07 44.6237 97.168 44.017 97.168ZM51.4682 97.168C50.8242 97.168 50.2642 97.0653 49.7882 96.86C49.3122 96.6547 48.9388 96.37 48.6682 96.006C48.3975 95.642 48.2435 95.2313 48.2062 94.774H50.0822C50.1288 94.9513 50.2082 95.1147 50.3202 95.264C50.4322 95.404 50.5815 95.516 50.7682 95.6C50.9548 95.684 51.1788 95.726 51.4402 95.726C51.6922 95.726 51.8975 95.6933 52.0562 95.628C52.2148 95.5533 52.3315 95.4553 52.4062 95.334C52.4902 95.2127 52.5322 95.0867 52.5322 94.956C52.5322 94.76 52.4762 94.6107 52.3642 94.508C52.2522 94.396 52.0888 94.3073 51.8742 94.242C51.6595 94.1767 51.3982 94.1113 51.0902 94.046C50.7542 93.9807 50.4228 93.9013 50.0962 93.808C49.7788 93.7053 49.4942 93.5793 49.2422 93.43C48.9902 93.2807 48.7895 93.0893 48.6402 92.856C48.4908 92.6227 48.4162 92.3333 48.4162 91.988C48.4162 91.568 48.5282 91.1947 48.7522 90.868C48.9762 90.532 49.3028 90.266 49.7322 90.07C50.1615 89.874 50.6795 89.776 51.2862 89.776C52.1355 89.776 52.8075 89.9673 53.3022 90.35C53.7968 90.7327 54.0908 91.26 54.1842 91.932H52.4062C52.3502 91.7173 52.2242 91.5493 52.0282 91.428C51.8415 91.2973 51.5895 91.232 51.2722 91.232C50.9362 91.232 50.6795 91.2927 50.5022 91.414C50.3248 91.5353 50.2362 91.694 50.2362 91.89C50.2362 92.0207 50.2922 92.1373 50.4042 92.24C50.5255 92.3427 50.6935 92.4313 50.9082 92.506C51.1228 92.5713 51.3842 92.6367 51.6922 92.702C52.2335 92.814 52.7095 92.9447 53.1202 93.094C53.5308 93.234 53.8528 93.4393 54.0862 93.71C54.3195 93.9713 54.4362 94.354 54.4362 94.858C54.4362 95.306 54.3148 95.7073 54.0722 96.062C53.8295 96.4073 53.4842 96.678 53.0362 96.874C52.5975 97.07 52.0748 97.168 51.4682 97.168ZM56.0773 97V89.944H57.9673V97H56.0773ZM57.0293 88.978C56.6933 88.978 56.4133 88.88 56.1893 88.684C55.9747 88.4787 55.8673 88.222 55.8673 87.914C55.8673 87.606 55.9747 87.354 56.1893 87.158C56.4133 86.9527 56.6933 86.85 57.0293 86.85C57.3747 86.85 57.6547 86.9527 57.8693 87.158C58.0933 87.354 58.2053 87.606 58.2053 87.914C58.2053 88.222 58.0933 88.4787 57.8693 88.684C57.6547 88.88 57.3747 88.978 57.0293 88.978ZM63.2091 97.168C62.5371 97.168 61.9305 97.014 61.3891 96.706C60.8571 96.3887 60.4325 95.9547 60.1151 95.404C59.8071 94.844 59.6531 94.2047 59.6531 93.486C59.6531 92.7487 59.8071 92.1047 60.1151 91.554C60.4325 90.994 60.8618 90.56 61.4031 90.252C61.9445 89.9347 62.5511 89.776 63.2231 89.776C63.9045 89.776 64.5111 89.9347 65.0431 90.252C65.5845 90.56 66.0091 90.994 66.3171 91.554C66.6345 92.1047 66.7931 92.744 66.7931 93.472C66.7931 94.2 66.6345 94.844 66.3171 95.404C66.0091 95.9547 65.5845 96.3887 65.0431 96.706C64.5018 97.014 63.8905 97.168 63.2091 97.168ZM63.2091 95.53C63.5265 95.53 63.8065 95.4553 64.0491 95.306C64.3011 95.1567 64.4971 94.928 64.6371 94.62C64.7865 94.312 64.8611 93.9293 64.8611 93.472C64.8611 93.0147 64.7865 92.6367 64.6371 92.338C64.4971 92.03 64.3011 91.8013 64.0491 91.652C63.8065 91.4933 63.5311 91.414 63.2231 91.414C62.9245 91.414 62.6491 91.4933 62.3971 91.652C62.1451 91.8013 61.9445 92.03 61.7951 92.338C61.6551 92.6367 61.5851 93.0147 61.5851 93.472C61.5851 93.9293 61.6551 94.312 61.7951 94.62C61.9445 94.928 62.1405 95.1567 62.3831 95.306C62.6351 95.4553 62.9105 95.53 63.2091 95.53ZM68.422 97V89.944H70.088L70.228 91.092C70.4427 90.7 70.746 90.3827 71.138 90.14C71.5394 89.8973 72.0154 89.776 72.566 89.776C73.154 89.776 73.6487 89.8973 74.05 90.14C74.4514 90.3827 74.7547 90.7373 74.96 91.204C75.1747 91.6707 75.282 92.2447 75.282 92.926V97H73.406V93.108C73.406 92.548 73.2847 92.1187 73.042 91.82C72.8087 91.5213 72.4447 91.372 71.95 91.372C71.6327 91.372 71.348 91.4467 71.096 91.596C70.8534 91.7453 70.662 91.96 70.522 92.24C70.382 92.5107 70.312 92.842 70.312 93.234V97H68.422ZM83.7736 97.168C83.0643 97.168 82.4296 97.0467 81.8696 96.804C81.3189 96.5613 80.8803 96.2067 80.5536 95.74C80.2363 95.2733 80.0729 94.7087 80.0636 94.046H82.0656C82.0749 94.3353 82.1496 94.5967 82.2896 94.83C82.4296 95.0633 82.6209 95.25 82.8636 95.39C83.1156 95.5207 83.4143 95.586 83.7596 95.586C84.0583 95.586 84.3149 95.5393 84.5296 95.446C84.7536 95.3433 84.9263 95.2033 85.0476 95.026C85.1689 94.8487 85.2296 94.6387 85.2296 94.396C85.2296 94.116 85.1596 93.8827 85.0196 93.696C84.8889 93.5093 84.7023 93.3507 84.4596 93.22C84.2263 93.0893 83.9509 92.9727 83.6336 92.87C83.3256 92.758 82.9989 92.6413 82.6536 92.52C81.8789 92.268 81.2863 91.932 80.8756 91.512C80.4743 91.092 80.2736 90.5367 80.2736 89.846C80.2736 89.258 80.4136 88.754 80.6936 88.334C80.9829 87.914 81.3796 87.592 81.8836 87.368C82.3876 87.144 82.9616 87.032 83.6056 87.032C84.2683 87.032 84.8469 87.1487 85.3416 87.382C85.8456 87.606 86.2423 87.9327 86.5316 88.362C86.8303 88.7913 86.9843 89.2953 86.9936 89.874H84.9776C84.9683 89.6593 84.9029 89.4587 84.7816 89.272C84.6696 89.076 84.5109 88.922 84.3056 88.81C84.1003 88.6887 83.8576 88.628 83.5776 88.628C83.3349 88.6187 83.1109 88.656 82.9056 88.74C82.7096 88.824 82.5509 88.95 82.4296 89.118C82.3176 89.2767 82.2616 89.4773 82.2616 89.72C82.2616 89.9533 82.3176 90.1493 82.4296 90.308C82.5509 90.4667 82.7143 90.6067 82.9196 90.728C83.1249 90.84 83.3676 90.9473 83.6476 91.05C83.9276 91.1433 84.2309 91.2413 84.5576 91.344C85.0429 91.512 85.4909 91.7127 85.9016 91.946C86.3123 92.17 86.6389 92.464 86.8816 92.828C87.1243 93.192 87.2456 93.6727 87.2456 94.27C87.2456 94.7833 87.1103 95.2593 86.8396 95.698C86.5689 96.1367 86.1769 96.4913 85.6636 96.762C85.1596 97.0327 84.5296 97.168 83.7736 97.168ZM88.8068 97V86.92H90.6968V90.994C90.9301 90.6207 91.2381 90.3267 91.6208 90.112C92.0128 89.888 92.4655 89.776 92.9788 89.776C93.5668 89.776 94.0615 89.902 94.4628 90.154C94.8641 90.3967 95.1675 90.7513 95.3728 91.218C95.5781 91.6847 95.6808 92.2633 95.6808 92.954V97H93.8048V93.122C93.8048 92.562 93.6881 92.1327 93.4548 91.834C93.2215 91.526 92.8528 91.372 92.3488 91.372C92.0408 91.372 91.7608 91.4467 91.5088 91.596C91.2568 91.7453 91.0561 91.9647 90.9068 92.254C90.7668 92.534 90.6968 92.87 90.6968 93.262V97H88.8068ZM99.8411 97.168C99.2531 97.168 98.7678 97.0747 98.3851 96.888C98.0024 96.692 97.7178 96.4353 97.5311 96.118C97.3538 95.7913 97.2651 95.432 97.2651 95.04C97.2651 94.6107 97.3724 94.2327 97.5871 93.906C97.8111 93.5793 98.1424 93.3227 98.5811 93.136C99.0291 92.9493 99.5891 92.856 100.261 92.856H102.011C102.011 92.5107 101.964 92.226 101.871 92.002C101.778 91.7687 101.633 91.596 101.437 91.484C101.241 91.372 100.98 91.316 100.653 91.316C100.298 91.316 99.9951 91.3953 99.7431 91.554C99.5004 91.7033 99.3511 91.9367 99.2951 92.254H97.4611C97.5078 91.75 97.6711 91.316 97.9511 90.952C98.2404 90.5787 98.6184 90.2893 99.0851 90.084C99.5611 89.8787 100.088 89.776 100.667 89.776C101.33 89.776 101.904 89.888 102.389 90.112C102.874 90.336 103.248 90.658 103.509 91.078C103.77 91.498 103.901 92.016 103.901 92.632V97H102.305L102.095 95.922C101.992 96.1087 101.871 96.2767 101.731 96.426C101.591 96.5753 101.428 96.706 101.241 96.818C101.054 96.93 100.844 97.014 100.611 97.07C100.378 97.1353 100.121 97.168 99.8411 97.168ZM100.289 95.712C100.532 95.712 100.746 95.67 100.933 95.586C101.129 95.4927 101.297 95.3713 101.437 95.222C101.577 95.0633 101.684 94.886 101.759 94.69C101.843 94.4847 101.899 94.2653 101.927 94.032V94.018H100.485C100.196 94.018 99.9578 94.0553 99.7711 94.13C99.5938 94.1953 99.4631 94.2933 99.3791 94.424C99.2951 94.5547 99.2531 94.704 99.2531 94.872C99.2531 95.0587 99.2951 95.2127 99.3791 95.334C99.4631 95.4553 99.5844 95.5487 99.7431 95.614C99.9018 95.6793 100.084 95.712 100.289 95.712ZM105.664 97V89.944H107.344L107.526 91.246C107.694 90.938 107.904 90.6767 108.156 90.462C108.418 90.2473 108.712 90.0793 109.038 89.958C109.374 89.8367 109.743 89.776 110.144 89.776V91.778H109.5C109.22 91.778 108.959 91.8107 108.716 91.876C108.483 91.9413 108.278 92.0487 108.1 92.198C107.923 92.338 107.788 92.534 107.694 92.786C107.601 93.038 107.554 93.3553 107.554 93.738V97H105.664ZM114.671 97.168C113.962 97.168 113.332 97.0187 112.781 96.72C112.24 96.412 111.815 95.9873 111.507 95.446C111.209 94.8953 111.059 94.2607 111.059 93.542C111.059 92.8047 111.209 92.156 111.507 91.596C111.815 91.0267 112.24 90.5833 112.781 90.266C113.323 89.9393 113.953 89.776 114.671 89.776C115.371 89.776 115.983 89.93 116.505 90.238C117.028 90.546 117.434 90.9613 117.723 91.484C118.013 92.0067 118.157 92.5993 118.157 93.262C118.157 93.3553 118.157 93.4627 118.157 93.584C118.157 93.696 118.148 93.8127 118.129 93.934H112.403V92.786H116.253C116.225 92.3287 116.062 91.9693 115.763 91.708C115.474 91.4467 115.11 91.316 114.671 91.316C114.354 91.316 114.06 91.3907 113.789 91.54C113.519 91.68 113.304 91.8993 113.145 92.198C112.996 92.4967 112.921 92.8747 112.921 93.332V93.738C112.921 94.1207 112.991 94.4567 113.131 94.746C113.281 95.026 113.486 95.2453 113.747 95.404C114.009 95.5533 114.312 95.628 114.657 95.628C115.003 95.628 115.287 95.5533 115.511 95.404C115.745 95.2547 115.917 95.0633 116.029 94.83H117.961C117.831 95.2687 117.611 95.6653 117.303 96.02C116.995 96.3747 116.617 96.6547 116.169 96.86C115.721 97.0653 115.222 97.168 114.671 97.168Z" fill="#72767C"/>
</svg>
