<svg width="98" height="98" viewBox="0 0 98 98" fill="none" xmlns="http://www.w3.org/2000/svg">
<path d="M98 49C98 76.062 76.062 98 49 98C21.938 98 0 76.062 0 49C0 21.938 21.938 0 49 0C76.062 0 98 21.938 98 49ZM4.58375 49C4.58375 73.5304 24.4696 93.4163 49 93.4163C73.5304 93.4163 93.4163 73.5304 93.4163 49C93.4163 24.4696 73.5304 4.58375 49 4.58375C24.4696 4.58375 4.58375 24.4696 4.58375 49Z" fill="#F2F2F2"/>
<path d="M35.4639 4.29629C35.097 3.08484 35.7808 1.79984 37.0081 1.49005C45.8051 -0.730493 55.0625 -0.46827 63.7436 2.2707C73.1545 5.23995 81.4496 10.9815 87.543 18.7438C93.6364 26.5061 97.244 35.9274 97.8937 45.7742C98.5434 55.621 96.2047 65.4346 91.184 73.9301C86.1632 82.4257 78.6943 89.2073 69.7551 93.3872C60.8158 97.5672 50.8227 98.9506 41.0841 97.3564C31.3455 95.7622 22.3151 91.2646 15.1752 84.4526C8.58907 78.1688 3.89463 70.1857 1.59714 61.4085C1.27662 60.184 2.07252 58.9652 3.31068 58.7023C4.54883 58.4394 5.75984 59.232 6.08627 60.455C8.18814 68.3295 12.4212 75.4897 18.3394 81.1361C24.8114 87.311 32.997 91.3878 41.8246 92.8328C50.6522 94.2779 59.7105 93.0239 67.8135 89.235C75.9166 85.4461 82.6868 79.2989 87.2378 71.598C91.7889 63.8972 93.9088 55.0017 93.3199 46.076C92.731 37.1502 89.4608 28.6103 83.9375 21.5742C78.4141 14.538 70.895 9.33352 62.3644 6.64204C54.5637 4.18086 46.2498 3.92589 38.3379 5.88244C37.1091 6.1863 35.8307 5.50773 35.4639 4.29629Z" fill="#A162F7"/>
<path d="M89 49C89 71.0914 71.0914 89 49 89C26.9086 89 9 71.0914 9 49C9 26.9086 26.9086 9 49 9C71.0914 9 89 26.9086 89 49ZM13.5477 49C13.5477 68.5798 29.4202 84.4523 49 84.4523C68.5798 84.4523 84.4523 68.5798 84.4523 49C84.4523 29.4202 68.5798 13.5477 49 13.5477C29.4202 13.5477 13.5477 29.4202 13.5477 49Z" fill="#F2F2F2"/>
<path d="M38.0652 12.8874C37.7022 11.6885 38.3788 10.4156 39.5964 10.121C47.5332 8.2012 55.8881 8.75293 63.5298 11.7322C71.8776 14.9868 78.8909 20.9499 83.4458 28.6656C88.0006 36.3812 89.833 45.4027 88.6495 54.284C87.4659 63.1653 83.3347 71.392 76.9183 77.6456C70.5018 83.8992 62.1715 87.8174 53.2628 88.7722C44.354 89.7271 35.3826 87.6632 27.7866 82.9115C20.1906 78.1598 14.4098 70.9954 11.371 62.5667C8.58912 54.8509 8.25241 46.4847 10.3757 38.5998C10.7014 37.3902 11.9913 36.7465 13.1805 37.1403C14.3697 37.534 15.007 38.8159 14.6901 40.0278C12.8809 46.9455 13.2013 54.2684 15.6384 61.0281C18.3327 68.5009 23.4578 74.8528 30.1924 79.0657C36.9269 83.2785 44.8809 85.1083 52.7793 84.2617C60.6778 83.4152 68.0633 79.9413 73.7521 74.3969C79.4409 68.8526 83.1035 61.5588 84.1529 53.6848C85.2022 45.8107 83.5776 37.8123 79.5393 30.9717C75.5011 24.131 69.2831 18.8442 61.882 15.9587C55.1871 13.3486 47.8749 12.84 40.913 14.4707C39.6933 14.7564 38.4282 14.0863 38.0652 12.8874Z" fill="#FF6370"/>
<path d="M81 49C81 66.6731 66.6731 81 49 81C31.3269 81 17 66.6731 17 49C17 31.3269 31.3269 17 49 17C66.6731 17 81 31.3269 81 49ZM21.321 49C21.321 64.2867 33.7133 76.679 49 76.679C64.2867 76.679 76.679 64.2867 76.679 49C76.679 33.7133 64.2867 21.321 49 21.321C33.7133 21.321 21.321 33.7133 21.321 49Z" fill="#F2F2F2"/>
<path d="M40.3523 20.4407C40.0066 19.2989 40.6508 18.0854 41.8134 17.8174C45.9323 16.8681 50.2059 16.7427 54.3866 17.4566C59.2783 18.292 63.9087 20.2536 67.9119 23.1864C71.915 26.1192 75.1812 29.9429 77.4523 34.3553C79.7234 38.7676 80.9371 43.6477 80.9976 48.6099C81.0581 53.5721 79.9637 58.4803 77.8008 62.9467C75.638 67.4131 72.466 71.3153 68.5355 74.3449C64.6051 77.3744 60.0239 79.4483 55.154 80.4027C50.992 81.2183 46.7166 81.1971 42.5757 80.3485C41.407 80.109 40.7334 78.9115 41.0512 77.7616C41.369 76.6117 42.5579 75.9459 43.7291 76.1731C47.2215 76.8506 50.8188 76.8497 54.3231 76.1629C58.5355 75.3374 62.4982 73.5435 65.898 70.923C69.2978 68.3025 72.0415 64.9271 73.9124 61.0637C75.7832 57.2004 76.7299 52.9548 76.6775 48.6626C76.6252 44.3704 75.5753 40.1491 73.6109 36.3325C71.6464 32.5159 68.8212 29.2084 65.3585 26.6716C61.8958 24.1347 57.8906 22.4379 53.6593 21.7154C50.1393 21.1143 46.5431 21.2011 43.0682 21.9635C41.9029 22.2191 40.6981 21.5826 40.3523 20.4407Z" fill="#F6CC0D"/>
<path d="M36.806 56.566V40.744H37.994V56.566H36.806ZM37.562 55.216C36.65 55.216 35.834 55.06 35.114 54.748C34.406 54.436 33.848 53.98 33.44 53.38C33.032 52.78 32.816 52.054 32.792 51.202H35.366C35.378 51.574 35.474 51.91 35.654 52.21C35.834 52.51 36.086 52.75 36.41 52.93C36.734 53.098 37.118 53.182 37.562 53.182C37.934 53.182 38.258 53.122 38.534 53.002C38.822 52.87 39.044 52.69 39.2 52.462C39.368 52.234 39.452 51.964 39.452 51.652C39.452 51.292 39.362 50.992 39.182 50.752C39.002 50.5 38.756 50.29 38.444 50.122C38.132 49.954 37.778 49.804 37.382 49.672C36.986 49.528 36.566 49.384 36.122 49.24C35.126 48.916 34.37 48.484 33.854 47.944C33.338 47.404 33.08 46.69 33.08 45.802C33.08 45.046 33.26 44.398 33.62 43.858C33.98 43.318 34.484 42.904 35.132 42.616C35.78 42.328 36.518 42.184 37.346 42.184C38.198 42.184 38.948 42.334 39.596 42.634C40.244 42.922 40.754 43.342 41.126 43.894C41.498 44.446 41.696 45.094 41.72 45.838H39.11C39.098 45.562 39.02 45.304 38.876 45.064C38.732 44.812 38.528 44.614 38.264 44.47C38 44.314 37.682 44.236 37.31 44.236C36.998 44.224 36.716 44.272 36.464 44.38C36.212 44.488 36.008 44.65 35.852 44.866C35.708 45.07 35.636 45.328 35.636 45.64C35.636 45.94 35.708 46.192 35.852 46.396C35.996 46.6 36.2 46.78 36.464 46.936C36.74 47.08 37.052 47.218 37.4 47.35C37.76 47.47 38.15 47.596 38.57 47.728C39.206 47.944 39.782 48.202 40.298 48.502C40.826 48.79 41.246 49.168 41.558 49.636C41.87 50.104 42.026 50.722 42.026 51.49C42.026 52.15 41.852 52.762 41.504 53.326C41.168 53.89 40.67 54.346 40.01 54.694C39.35 55.042 38.534 55.216 37.562 55.216ZM48.5161 55.216C47.6521 55.216 46.8721 55.06 46.1761 54.748C45.4801 54.436 44.9221 53.998 44.5021 53.434C44.0941 52.87 43.8901 52.216 43.8901 51.472C43.8901 50.956 43.9741 50.488 44.1421 50.068C44.3221 49.648 44.5681 49.276 44.8801 48.952C45.2041 48.628 45.5821 48.382 46.0141 48.214C45.4621 47.962 45.0181 47.602 44.6821 47.134C44.3581 46.666 44.1961 46.138 44.1961 45.55C44.1961 44.962 44.3581 44.41 44.6821 43.894C45.0181 43.378 45.5041 42.964 46.1401 42.652C46.7761 42.34 47.5681 42.184 48.5161 42.184C49.4641 42.184 50.2561 42.34 50.8921 42.652C51.5401 42.964 52.0261 43.378 52.3501 43.894C52.6741 44.41 52.8361 44.962 52.8361 45.55C52.8361 46.126 52.6681 46.654 52.3321 47.134C51.9961 47.602 51.5581 47.962 51.0181 48.214C51.4621 48.394 51.8401 48.646 52.1521 48.97C52.4761 49.282 52.7221 49.648 52.8901 50.068C53.0701 50.488 53.1601 50.956 53.1601 51.472C53.1601 52.216 52.9501 52.87 52.5301 53.434C52.1221 53.998 51.5641 54.436 50.8561 54.748C50.1601 55.06 49.3801 55.216 48.5161 55.216ZM48.5161 53.182C49.2601 53.182 49.8181 53.002 50.1901 52.642C50.5741 52.282 50.7661 51.826 50.7661 51.274C50.7661 50.662 50.5681 50.182 50.1721 49.834C49.7761 49.474 49.2241 49.294 48.5161 49.294C47.8201 49.294 47.2681 49.474 46.8601 49.834C46.4521 50.182 46.2481 50.662 46.2481 51.274C46.2481 51.826 46.4401 52.282 46.8241 52.642C47.2201 53.002 47.7841 53.182 48.5161 53.182ZM48.5161 47.512C49.1281 47.512 49.6021 47.356 49.9381 47.044C50.2741 46.732 50.4421 46.33 50.4421 45.838C50.4421 45.31 50.2741 44.902 49.9381 44.614C49.6021 44.314 49.1281 44.164 48.5161 44.164C47.9161 44.164 47.4481 44.314 47.1121 44.614C46.7761 44.902 46.6081 45.316 46.6081 45.856C46.6081 46.336 46.7761 46.732 47.1121 47.044C47.4481 47.356 47.9161 47.512 48.5161 47.512ZM56.5676 55V45.19L54.3896 45.73V43.822L57.5936 42.4H59.0876V55H56.5676ZM63.0364 55V45.19L60.8584 45.73V43.822L64.0624 42.4H65.5564V55H63.0364Z" fill="#242731"/>
</svg>
