<svg width="10" height="14" viewBox="0 0 10 14" fill="none" xmlns="http://www.w3.org/2000/svg">
<path d="M4.99976 3.16254C4.63585 3.16254 4.2801 3.27045 3.97752 3.47263C3.67494 3.67481 3.4391 3.96218 3.29984 4.29839C3.16057 4.6346 3.12413 5.00456 3.19513 5.36149C3.26613 5.71841 3.44137 6.04626 3.6987 6.30359C3.95602 6.56092 4.28388 6.73616 4.6408 6.80716C4.99772 6.87815 5.36768 6.84171 5.7039 6.70245C6.04011 6.56319 6.32748 6.32735 6.52966 6.02477C6.73184 5.72218 6.83975 5.36644 6.83975 5.00252C6.83919 4.5147 6.64516 4.04701 6.30022 3.70207C5.95527 3.35713 5.48759 3.16309 4.99976 3.16254ZM4.99976 5.92252C4.81781 5.92252 4.63993 5.86856 4.48864 5.76747C4.33735 5.66638 4.21943 5.5227 4.1498 5.35459C4.08017 5.18648 4.06195 5.0015 4.09745 4.82304C4.13294 4.64458 4.22057 4.48065 4.34923 4.35199C4.47789 4.22333 4.64182 4.13571 4.82028 4.10021C4.99874 4.06471 5.18372 4.08293 5.35183 4.15256C5.51994 4.22219 5.66362 4.34011 5.76471 4.4914C5.8658 4.64269 5.91976 4.82057 5.91976 5.00252C5.91948 5.24643 5.82246 5.48028 5.64999 5.65275C5.47751 5.82522 5.24367 5.92224 4.99976 5.92252Z" fill="black"/>
<path d="M8.53548 1.46409C7.66128 0.590106 6.49432 0.0709252 5.25983 0.00674803C4.02535 -0.0574292 2.81084 0.337947 1.85073 1.11657C0.89061 1.89519 0.252941 3.00186 0.0607913 4.22299C-0.131358 5.44411 0.135633 6.69313 0.810236 7.72898L4.28629 13.0653C4.36364 13.1841 4.46941 13.2816 4.594 13.3492C4.71859 13.4167 4.85807 13.4521 4.99979 13.4521C5.1415 13.4521 5.28098 13.4167 5.40557 13.3492C5.53016 13.2816 5.63593 13.1841 5.71328 13.0653L9.18945 7.72898C9.81541 6.76808 10.092 5.62122 9.97297 4.48062C9.85391 3.34001 9.34639 2.275 8.53548 1.46409ZM8.41861 7.22681L4.9998 12.4751L1.58096 7.22681C0.534467 5.6203 0.758917 3.47039 2.11464 2.11461C2.49352 1.73572 2.94332 1.43516 3.43836 1.23011C3.9334 1.02505 4.46398 0.919514 4.9998 0.919514C5.53563 0.919514 6.06621 1.02505 6.56124 1.23011C7.05628 1.43516 7.50608 1.73572 7.88496 2.11461C9.24068 3.47039 9.4651 5.6203 8.41861 7.22681Z" fill="black"/>
</svg>
