<svg width="20" height="20" viewBox="0 0 20 20" fill="none" xmlns="http://www.w3.org/2000/svg">
<path d="M4.58329 14.5833H3.33329V5.41667H9.83329L9.16663 6.08334C8.99996 6.25001 8.91663 6.41667 8.91663 6.66667C8.91663 7.16667 9.24996 7.50001 9.74996 7.50001C9.99996 7.50001 10.1666 7.41667 10.3333 7.25001L12.4166 5.16667C12.75 4.83334 12.75 4.33334 12.4166 4.00001L10.3333 1.91667C9.99996 1.58334 9.49996 1.58334 9.16663 1.91667C8.83329 2.25001 8.83329 2.75001 9.16663 3.08334L9.83329 3.75001H2.49996C1.99996 3.75001 1.66663 4.08334 1.66663 4.58334V15.4167C1.66663 15.9167 1.99996 16.25 2.49996 16.25H4.58329C5.08329 16.25 5.41663 15.9167 5.41663 15.4167C5.41663 14.9167 5.08329 14.5833 4.58329 14.5833ZM17.5 3.75001H15.4166C14.9166 3.75001 14.5833 4.08334 14.5833 4.58334C14.5833 5.08334 14.9166 5.41667 15.4166 5.41667H16.6666V14.5833H9.66663L10.3333 13.9167C10.6666 13.5833 10.6666 13.0833 10.3333 12.75C9.99996 12.4167 9.49996 12.4167 9.16663 12.75L7.08329 14.8333C6.74996 15.1667 6.74996 15.6667 7.08329 16L9.16663 18.0833C9.33329 18.25 9.49996 18.3333 9.74996 18.3333C9.99996 18.3333 10.1666 18.25 10.3333 18.0833C10.6666 17.75 10.6666 17.25 10.3333 16.9167L9.66663 16.25H17.5C18 16.25 18.3333 15.9167 18.3333 15.4167V4.58334C18.3333 4.08334 18 3.75001 17.5 3.75001Z" fill="#72767C"/>
</svg>
