<svg width="16" height="16" viewBox="0 0 16 16" fill="none" xmlns="http://www.w3.org/2000/svg">
<path d="M13.2253 6.3874C13.17 6.27773 13.0855 6.1855 12.981 6.12095C12.8765 6.05639 12.7562 6.02202 12.6334 6.02165H9.30843V2.03164C9.31556 1.88579 9.2745 1.74165 9.19157 1.62147C9.10864 1.50128 8.98846 1.41173 8.84958 1.36664C8.71606 1.32271 8.57206 1.32222 8.43825 1.36523C8.30443 1.40824 8.18769 1.49255 8.10477 1.60604L2.78477 8.92105C2.71811 9.01739 2.67809 9.12962 2.66874 9.2464C2.6594 9.36317 2.68107 9.48034 2.73157 9.58605C2.77806 9.70691 2.85884 9.81157 2.96398 9.88718C3.06911 9.96278 3.19404 10.006 3.32342 10.0117H6.64842V14.0017C6.64853 14.1419 6.69296 14.2785 6.77537 14.392C6.85778 14.5054 6.97395 14.5899 7.10727 14.6334C7.17409 14.6541 7.24349 14.6653 7.31342 14.6667C7.41835 14.6669 7.52185 14.6424 7.61547 14.595C7.70909 14.5476 7.79017 14.4787 7.85207 14.394L13.1721 7.079C13.2437 6.97978 13.2866 6.86271 13.296 6.74068C13.3054 6.61866 13.2809 6.49641 13.2253 6.3874ZM7.97842 11.9535V9.34665C7.97842 9.17028 7.90836 9.00114 7.78365 8.87643C7.65894 8.75171 7.48979 8.68165 7.31342 8.68165H4.65342L7.97842 4.07984V6.68665C7.97842 6.86302 8.04849 7.03216 8.1732 7.15687C8.29791 7.28159 8.46706 7.35165 8.64342 7.35165H11.3034L7.97842 11.9535Z" fill="#72767C"/>
</svg>
