<svg width="16" height="16" viewBox="0 0 16 16" fill="none" xmlns="http://www.w3.org/2000/svg">
<path d="M9.33724 7.33719H8.67057V6.67053C8.67057 6.49372 8.60034 6.32415 8.47531 6.19912C8.35029 6.0741 8.18072 6.00386 8.00391 6.00386C7.8271 6.00386 7.65753 6.0741 7.5325 6.19912C7.40748 6.32415 7.33724 6.49372 7.33724 6.67053V7.33719H6.67057C6.49376 7.33719 6.32419 7.40743 6.19917 7.53246C6.07414 7.65748 6.00391 7.82705 6.00391 8.00386C6.00391 8.18067 6.07414 8.35024 6.19917 8.47527C6.32419 8.60029 6.49376 8.67053 6.67057 8.67053H7.33724V9.33719C7.33724 9.514 7.40748 9.68357 7.5325 9.8086C7.65753 9.93362 7.8271 10.0039 8.00391 10.0039C8.18072 10.0039 8.35029 9.93362 8.47531 9.8086C8.60034 9.68357 8.67057 9.514 8.67057 9.33719V8.67053H9.33724C9.51405 8.67053 9.68362 8.60029 9.80864 8.47527C9.93367 8.35024 10.0039 8.18067 10.0039 8.00386C10.0039 7.82705 9.93367 7.65748 9.80864 7.53246C9.68362 7.40743 9.51405 7.33719 9.33724 7.33719ZM14.4772 7.53053L12.9106 6.00386V3.76386C12.9106 3.58705 12.8403 3.41748 12.7153 3.29246C12.5903 3.16743 12.4207 3.09719 12.2439 3.09719H10.0372L8.47724 1.53053C8.41526 1.46804 8.34153 1.41845 8.26029 1.3846C8.17905 1.35075 8.09191 1.33333 8.00391 1.33333C7.9159 1.33333 7.82876 1.35075 7.74752 1.3846C7.66628 1.41845 7.59255 1.46804 7.53057 1.53053L6.00391 3.09719H3.76391C3.5871 3.09719 3.41753 3.16743 3.2925 3.29246C3.16748 3.41748 3.09724 3.58705 3.09724 3.76386V6.00386L1.53057 7.53053C1.46809 7.5925 1.41849 7.66624 1.38465 7.74748C1.3508 7.82872 1.33337 7.91585 1.33337 8.00386C1.33337 8.09187 1.3508 8.17901 1.38465 8.26025C1.41849 8.34148 1.46809 8.41522 1.53057 8.47719L3.09724 10.0372V12.2439C3.09724 12.4207 3.16748 12.5902 3.2925 12.7153C3.41753 12.8403 3.5871 12.9105 3.76391 12.9105H6.00391L7.56391 14.4772C7.62588 14.5397 7.69962 14.5893 7.78086 14.6231C7.86209 14.657 7.94923 14.6744 8.03724 14.6744C8.12525 14.6744 8.21239 14.657 8.29362 14.6231C8.37486 14.5893 8.4486 14.5397 8.51057 14.4772L10.0706 12.9105H12.2772C12.4541 12.9105 12.6236 12.8403 12.7486 12.7153C12.8737 12.5902 12.9439 12.4207 12.9439 12.2439V10.0372L14.5106 8.47719C14.5709 8.41304 14.618 8.33757 14.649 8.25514C14.68 8.1727 14.6944 8.08493 14.6913 7.99691C14.6882 7.90889 14.6677 7.82235 14.6309 7.7423C14.5942 7.66225 14.542 7.59027 14.4772 7.53053ZM11.7772 9.29053C11.7142 9.35227 11.6641 9.4259 11.6298 9.50715C11.5955 9.5884 11.5776 9.67566 11.5772 9.76386V11.5772H9.76391C9.6757 11.5776 9.58845 11.5954 9.5072 11.6298C9.42595 11.6641 9.35232 11.7142 9.29057 11.7772L8.00391 13.0639L6.71724 11.7772C6.6555 11.7142 6.58187 11.6641 6.50062 11.6298C6.41937 11.5954 6.33211 11.5776 6.24391 11.5772H4.43057V9.76386C4.43021 9.67566 4.41234 9.5884 4.37801 9.50715C4.34368 9.4259 4.29357 9.35227 4.23057 9.29053L2.94391 8.00386L4.23057 6.71719C4.29357 6.65545 4.34368 6.58182 4.37801 6.50057C4.41234 6.41932 4.43021 6.33207 4.43057 6.24386V4.43053H6.24391C6.33211 4.43016 6.41937 4.41229 6.50062 4.37796C6.58187 4.34363 6.6555 4.29352 6.71724 4.23053L8.00391 2.94386L9.29057 4.23053C9.35232 4.29352 9.42595 4.34363 9.5072 4.37796C9.58845 4.41229 9.6757 4.43016 9.76391 4.43053H11.5772V6.24386C11.5776 6.33207 11.5955 6.41932 11.6298 6.50057C11.6641 6.58182 11.7142 6.65545 11.7772 6.71719L13.0639 8.00386L11.7772 9.29053Z" fill="#72767C"/>
</svg>
