<svg width="24" height="24" viewBox="0 0 24 24" fill="none" xmlns="http://www.w3.org/2000/svg">
<path d="M4.56104 9.4751C7.30719 6.72894 11.7777 6.72901 14.5239 9.4751C17.2701 12.2213 17.2701 16.6918 14.5239 19.438C13.1464 20.8114 11.3421 21.4995 9.54053 21.4995C7.73459 21.4995 5.93427 20.8112 4.56104 19.438C1.81495 16.6918 1.81488 12.2213 4.56104 9.4751ZM9.54053 7.95459C7.87599 7.95459 6.20995 8.59144 4.94189 9.85498V9.85596C2.40513 12.3927 2.40513 16.5165 4.94189 19.0532C7.47866 21.59 11.6024 21.59 14.1392 19.0532C16.6759 16.5165 16.6759 12.3927 14.1392 9.85596V9.85498L13.897 9.62549C12.663 8.51429 11.1011 7.9546 9.54053 7.95459Z" fill="#7C7C8D" stroke="#7C7C8D"/>
<path d="M14.3308 10.4388C14.135 10.4388 13.9392 10.3639 13.785 10.2139C13.4851 9.91388 13.4851 9.42642 13.785 9.12644L20.6845 2.22694C20.9845 1.92696 21.472 1.92696 21.772 2.22694C22.0719 2.52692 22.0719 3.01438 21.772 3.31436L14.8766 10.2139C14.7225 10.3639 14.5267 10.4388 14.3308 10.4388Z" fill="#7C7C8D"/>
<path d="M21.0182 9.22983C21.0099 9.22983 20.9974 9.22983 20.9891 9.22983C20.5641 9.21316 20.2349 8.85902 20.2474 8.43405L20.4266 3.5719L15.5644 3.74689C15.127 3.76772 14.7812 3.43024 14.7687 3.00528C14.752 2.58031 15.0853 2.222 15.5103 2.2095L21.2015 2.00118C21.414 1.98868 21.6223 2.07618 21.7723 2.22616C21.9223 2.37615 22.0056 2.58447 21.9973 2.79696L21.789 8.48405C21.7723 8.90485 21.4307 9.22983 21.0182 9.22983Z" fill="#7C7C8D"/>
</svg>
