<svg width="24" height="24" viewBox="0 0 24 24" fill="none" xmlns="http://www.w3.org/2000/svg">
<mask id="path-1-inside-1_263_1096" fill="white">
<path d="M18.743 16.3723C18.743 16.8433 18.743 17.3123 18.743 17.7834C18.743 18.5239 18.743 19.2664 18.743 20.007C18.743 20.1962 18.7574 20.3916 18.7368 20.5809C18.7451 20.5253 18.7512 20.4718 18.7595 20.4163C18.7471 20.4986 18.7266 20.5767 18.6978 20.6528C18.7183 20.6035 18.7389 20.5541 18.7595 20.5047C18.7389 20.5541 18.7142 20.6014 18.6854 20.6467C18.6134 20.7598 18.7183 20.6055 18.7204 20.6076C18.7224 20.6117 18.6648 20.6693 18.6587 20.6755C18.6402 20.694 18.6175 20.7104 18.599 20.729C18.5579 20.7722 18.743 20.6364 18.6381 20.696C18.5867 20.7248 18.5394 20.7536 18.4838 20.7783C18.5332 20.7578 18.5826 20.7372 18.6319 20.7166C18.5558 20.7475 18.4756 20.768 18.3954 20.7783C18.4509 20.7701 18.5044 20.7639 18.5599 20.7557C18.416 20.7722 18.2658 20.7619 18.1218 20.7619C17.8133 20.7619 17.5047 20.7619 17.1962 20.7619C16.1656 20.7619 15.133 20.7619 14.1025 20.7619C12.858 20.7619 11.6135 20.7619 10.3711 20.7619C9.29325 20.7619 8.21539 20.7619 7.13754 20.7619C6.62741 20.7619 6.11728 20.7639 5.60715 20.7619C5.56395 20.7619 5.52075 20.7598 5.47961 20.7557C5.53515 20.7639 5.58863 20.7701 5.64417 20.7783C5.56189 20.766 5.48373 20.7454 5.40762 20.7166C5.45699 20.7372 5.50635 20.7578 5.55572 20.7783C5.50635 20.7578 5.45904 20.7331 5.41379 20.7043C5.30066 20.6323 5.45493 20.7372 5.45287 20.7392C5.44876 20.7413 5.39116 20.6837 5.38499 20.6775C5.36648 20.659 5.35002 20.6364 5.33151 20.6179C5.28831 20.5767 5.42407 20.7619 5.36442 20.657C5.33562 20.6055 5.30683 20.5582 5.28214 20.5027C5.30271 20.5521 5.32328 20.6014 5.34385 20.6508C5.313 20.5747 5.29243 20.4945 5.28214 20.4142C5.29037 20.4698 5.29654 20.5233 5.30477 20.5788C5.28831 20.4225 5.2986 20.2579 5.2986 20.1016C5.2986 19.7786 5.2986 19.4557 5.2986 19.1327C5.2986 18.384 5.2986 17.6353 5.2986 16.8845C5.2986 16.7117 5.2986 16.5389 5.2986 16.3661C4.94685 16.5122 4.59717 16.6561 4.24543 16.8022C4.58483 17.0778 4.95508 17.2876 5.38088 17.4069C5.7861 17.5221 6.20984 17.5448 6.62741 17.4892C7.38643 17.3864 8.10638 17.0058 8.58771 16.4052C8.29767 16.4052 8.00558 16.4052 7.71555 16.4052C8.13517 16.9277 8.76461 17.3144 9.42284 17.4481C10.1592 17.6003 10.9244 17.4954 11.5847 17.1334C11.9159 16.9523 12.2203 16.6993 12.4569 16.4052C12.1669 16.4052 11.8748 16.4052 11.5847 16.4052C12.0044 16.9277 12.6338 17.3144 13.292 17.4481C14.0284 17.6003 14.7936 17.4954 15.4539 17.1334C15.7851 16.9523 16.0895 16.6993 16.3261 16.4052C16.036 16.4052 15.7439 16.4052 15.4539 16.4052C15.9126 16.977 16.614 17.3761 17.3381 17.4789C18.165 17.5962 19.0145 17.4152 19.6831 16.8989C19.8168 16.796 19.9196 16.6993 19.9669 16.5307C20.0081 16.3826 19.9895 16.1871 19.9052 16.0555C19.8209 15.9239 19.6933 15.8087 19.537 15.7716C19.3868 15.7367 19.1894 15.7346 19.0618 15.8333C18.8788 15.9753 18.6813 16.0905 18.4694 16.181C18.5188 16.1604 18.5682 16.1398 18.6175 16.1193C18.4221 16.1995 18.2185 16.255 18.0087 16.2859C18.0642 16.2777 18.1177 16.2715 18.1732 16.2633C17.9511 16.2921 17.7269 16.2941 17.5047 16.2653C17.5603 16.2735 17.6137 16.2797 17.6693 16.2879C17.4492 16.2571 17.2352 16.1995 17.0296 16.1131C17.0789 16.1337 17.1283 16.1542 17.1777 16.1748C17.083 16.1337 16.9905 16.0884 16.9 16.0349C16.8609 16.0123 16.8197 15.9876 16.7827 15.9609C16.7621 15.9465 16.7395 15.9321 16.7189 15.9177C16.6984 15.9033 16.6202 15.8436 16.7066 15.9115C16.7951 15.9815 16.7107 15.9136 16.6963 15.9033C16.6799 15.8909 16.6655 15.8765 16.649 15.8642C16.6099 15.8313 16.5729 15.7963 16.5359 15.7593C16.4618 15.6873 16.3939 15.6112 16.3302 15.531C16.2417 15.4199 16.0319 15.3438 15.8941 15.35C15.7419 15.3561 15.5588 15.4055 15.458 15.531C15.3943 15.6112 15.3264 15.6873 15.2523 15.7593C15.2194 15.7922 15.1865 15.8231 15.1515 15.8539C15.133 15.8704 15.1124 15.8868 15.0939 15.9033C15.0754 15.9197 14.9973 15.9794 15.0836 15.9115C15.1721 15.8416 15.0878 15.9074 15.0713 15.9177C15.0549 15.93 15.0384 15.9403 15.0199 15.9527C14.9767 15.9815 14.9335 16.0082 14.8882 16.0349C14.7998 16.0864 14.7052 16.1337 14.6105 16.1748C14.6599 16.1542 14.7093 16.1337 14.7586 16.1131C14.5529 16.1995 14.3411 16.2571 14.1189 16.2879C14.1745 16.2797 14.2279 16.2735 14.2835 16.2653C14.0675 16.2921 13.8495 16.2921 13.6314 16.2653C13.687 16.2735 13.7404 16.2797 13.796 16.2879C13.5759 16.2571 13.362 16.1995 13.1563 16.1131C13.2056 16.1337 13.255 16.1542 13.3044 16.1748C13.2097 16.1337 13.1172 16.0884 13.0267 16.0349C12.9876 16.0123 12.9464 15.9876 12.9094 15.9609C12.8889 15.9465 12.8662 15.9321 12.8457 15.9177C12.8251 15.9033 12.7469 15.8436 12.8333 15.9115C12.9218 15.9815 12.8374 15.9136 12.823 15.9033C12.8066 15.8909 12.7922 15.8765 12.7757 15.8642C12.7366 15.8313 12.6996 15.7963 12.6626 15.7593C12.5885 15.6873 12.5207 15.6112 12.4569 15.531C12.3684 15.4199 12.1586 15.3438 12.0208 15.35C11.8686 15.3561 11.6855 15.4055 11.5847 15.531C11.521 15.6112 11.4531 15.6873 11.379 15.7593C11.3461 15.7922 11.3132 15.8231 11.2782 15.8539C11.2597 15.8704 11.2392 15.8868 11.2206 15.9033C11.2021 15.9197 11.124 15.9794 11.2104 15.9115C11.2988 15.8416 11.2145 15.9074 11.198 15.9177C11.1816 15.93 11.1651 15.9403 11.1466 15.9527C11.1034 15.9815 11.0602 16.0082 11.0149 16.0349C10.9265 16.0864 10.8339 16.1337 10.7373 16.1748C10.7866 16.1542 10.836 16.1337 10.8854 16.1131C10.6797 16.1995 10.4678 16.2571 10.2456 16.2879C10.3012 16.2797 10.3547 16.2735 10.4102 16.2653C10.1942 16.2921 9.97617 16.2921 9.75813 16.2653C9.81367 16.2735 9.86715 16.2797 9.92269 16.2879C9.70259 16.2571 9.48867 16.1995 9.28502 16.1131C9.33439 16.1337 9.38376 16.1542 9.43313 16.1748C9.3385 16.1337 9.24594 16.0884 9.15543 16.0349C9.11635 16.0123 9.07521 15.9876 9.03819 15.9609C9.01762 15.9465 8.99499 15.9321 8.97442 15.9177C8.95385 15.9033 8.87569 15.8436 8.96208 15.9115C9.05053 15.9815 8.96619 15.9136 8.95179 15.9033C8.93534 15.8909 8.92094 15.8765 8.90448 15.8642C8.8654 15.8313 8.82837 15.7963 8.79135 15.7593C8.7173 15.6873 8.64942 15.6112 8.58565 15.531C8.4972 15.4199 8.28739 15.3438 8.14957 15.35C7.99735 15.3561 7.81428 15.4055 7.71349 15.531C7.64973 15.6112 7.58185 15.6873 7.50779 15.7593C7.47488 15.7922 7.44197 15.8231 7.407 15.8539C7.38849 15.8704 7.36792 15.8868 7.34941 15.9033C7.33089 15.9197 7.25273 15.9794 7.33912 15.9115C7.42757 15.8416 7.34324 15.9074 7.32678 15.9177C7.31032 15.93 7.29387 15.9403 7.27536 15.9527C7.23216 15.9815 7.18896 16.0082 7.14577 16.0349C7.05732 16.0864 6.96475 16.1337 6.87013 16.1748C6.9195 16.1542 6.96887 16.1337 7.01823 16.1131C6.81253 16.1995 6.60067 16.2571 6.38057 16.2879C6.43611 16.2797 6.48959 16.2735 6.54513 16.2653C6.32297 16.2941 6.09876 16.2921 5.87455 16.2633C5.93009 16.2715 5.98357 16.2777 6.03911 16.2859C5.8293 16.255 5.6236 16.1995 5.42819 16.1193C5.47756 16.1398 5.52692 16.1604 5.57629 16.181C5.4755 16.1378 5.37882 16.0905 5.2842 16.0349C5.24306 16.0102 5.20192 15.9835 5.16078 15.9568C5.13815 15.9424 5.11758 15.9259 5.09496 15.9115C5.00445 15.8498 5.21015 16.002 5.11964 15.93C4.92011 15.7696 4.69385 15.6976 4.44495 15.8025C4.22074 15.8971 4.06647 16.1193 4.06647 16.3661C4.06647 17.1354 4.06647 17.9027 4.06647 18.672C4.06647 19.141 4.06647 19.612 4.06647 20.081C4.06647 20.5212 4.06441 20.9573 4.34005 21.3337C4.64036 21.743 5.08673 21.9899 5.60097 21.9981C5.62977 21.9981 5.66063 21.9981 5.68942 21.9981C5.87455 21.9981 6.05762 21.9981 6.24275 21.9981C6.99149 21.9981 7.74229 21.9981 8.49103 21.9981C9.53598 21.9981 10.5809 21.9981 11.6259 21.9981C12.7037 21.9981 13.7795 21.9981 14.8574 21.9981C15.7028 21.9981 16.5503 21.9981 17.3957 21.9981C17.7495 21.9981 18.1012 22.0022 18.455 21.9981C18.9755 21.9919 19.4321 21.7348 19.7304 21.3131C19.9114 21.056 19.9875 20.7372 19.9875 20.4245C19.9875 20.0934 19.9875 19.7642 19.9875 19.4331C19.9875 18.4745 19.9875 17.518 19.9875 16.5595C19.9875 16.4957 19.9875 16.4319 19.9875 16.3682C19.9875 16.0452 19.7036 15.7367 19.3704 15.7511C19.0248 15.7716 18.743 16.0267 18.743 16.3723Z"/>
</mask>
<path d="M18.743 16.3723C18.743 16.8433 18.743 17.3123 18.743 17.7834C18.743 18.5239 18.743 19.2664 18.743 20.007C18.743 20.1962 18.7574 20.3916 18.7368 20.5809C18.7451 20.5253 18.7512 20.4718 18.7595 20.4163C18.7471 20.4986 18.7266 20.5767 18.6978 20.6528C18.7183 20.6035 18.7389 20.5541 18.7595 20.5047C18.7389 20.5541 18.7142 20.6014 18.6854 20.6467C18.6134 20.7598 18.7183 20.6055 18.7204 20.6076C18.7224 20.6117 18.6648 20.6693 18.6587 20.6755C18.6402 20.694 18.6175 20.7104 18.599 20.729C18.5579 20.7722 18.743 20.6364 18.6381 20.696C18.5867 20.7248 18.5394 20.7536 18.4838 20.7783C18.5332 20.7578 18.5826 20.7372 18.6319 20.7166C18.5558 20.7475 18.4756 20.768 18.3954 20.7783C18.4509 20.7701 18.5044 20.7639 18.5599 20.7557C18.416 20.7722 18.2658 20.7619 18.1218 20.7619C17.8133 20.7619 17.5047 20.7619 17.1962 20.7619C16.1656 20.7619 15.133 20.7619 14.1025 20.7619C12.858 20.7619 11.6135 20.7619 10.3711 20.7619C9.29325 20.7619 8.21539 20.7619 7.13754 20.7619C6.62741 20.7619 6.11728 20.7639 5.60715 20.7619C5.56395 20.7619 5.52075 20.7598 5.47961 20.7557C5.53515 20.7639 5.58863 20.7701 5.64417 20.7783C5.56189 20.766 5.48373 20.7454 5.40762 20.7166C5.45699 20.7372 5.50635 20.7578 5.55572 20.7783C5.50635 20.7578 5.45904 20.7331 5.41379 20.7043C5.30066 20.6323 5.45493 20.7372 5.45287 20.7392C5.44876 20.7413 5.39116 20.6837 5.38499 20.6775C5.36648 20.659 5.35002 20.6364 5.33151 20.6179C5.28831 20.5767 5.42407 20.7619 5.36442 20.657C5.33562 20.6055 5.30683 20.5582 5.28214 20.5027C5.30271 20.5521 5.32328 20.6014 5.34385 20.6508C5.313 20.5747 5.29243 20.4945 5.28214 20.4142C5.29037 20.4698 5.29654 20.5233 5.30477 20.5788C5.28831 20.4225 5.2986 20.2579 5.2986 20.1016C5.2986 19.7786 5.2986 19.4557 5.2986 19.1327C5.2986 18.384 5.2986 17.6353 5.2986 16.8845C5.2986 16.7117 5.2986 16.5389 5.2986 16.3661C4.94685 16.5122 4.59717 16.6561 4.24543 16.8022C4.58483 17.0778 4.95508 17.2876 5.38088 17.4069C5.7861 17.5221 6.20984 17.5448 6.62741 17.4892C7.38643 17.3864 8.10638 17.0058 8.58771 16.4052C8.29767 16.4052 8.00558 16.4052 7.71555 16.4052C8.13517 16.9277 8.76461 17.3144 9.42284 17.4481C10.1592 17.6003 10.9244 17.4954 11.5847 17.1334C11.9159 16.9523 12.2203 16.6993 12.4569 16.4052C12.1669 16.4052 11.8748 16.4052 11.5847 16.4052C12.0044 16.9277 12.6338 17.3144 13.292 17.4481C14.0284 17.6003 14.7936 17.4954 15.4539 17.1334C15.7851 16.9523 16.0895 16.6993 16.3261 16.4052C16.036 16.4052 15.7439 16.4052 15.4539 16.4052C15.9126 16.977 16.614 17.3761 17.3381 17.4789C18.165 17.5962 19.0145 17.4152 19.6831 16.8989C19.8168 16.796 19.9196 16.6993 19.9669 16.5307C20.0081 16.3826 19.9895 16.1871 19.9052 16.0555C19.8209 15.9239 19.6933 15.8087 19.537 15.7716C19.3868 15.7367 19.1894 15.7346 19.0618 15.8333C18.8788 15.9753 18.6813 16.0905 18.4694 16.181C18.5188 16.1604 18.5682 16.1398 18.6175 16.1193C18.4221 16.1995 18.2185 16.255 18.0087 16.2859C18.0642 16.2777 18.1177 16.2715 18.1732 16.2633C17.9511 16.2921 17.7269 16.2941 17.5047 16.2653C17.5603 16.2735 17.6137 16.2797 17.6693 16.2879C17.4492 16.2571 17.2352 16.1995 17.0296 16.1131C17.0789 16.1337 17.1283 16.1542 17.1777 16.1748C17.083 16.1337 16.9905 16.0884 16.9 16.0349C16.8609 16.0123 16.8197 15.9876 16.7827 15.9609C16.7621 15.9465 16.7395 15.9321 16.7189 15.9177C16.6984 15.9033 16.6202 15.8436 16.7066 15.9115C16.7951 15.9815 16.7107 15.9136 16.6963 15.9033C16.6799 15.8909 16.6655 15.8765 16.649 15.8642C16.6099 15.8313 16.5729 15.7963 16.5359 15.7593C16.4618 15.6873 16.3939 15.6112 16.3302 15.531C16.2417 15.4199 16.0319 15.3438 15.8941 15.35C15.7419 15.3561 15.5588 15.4055 15.458 15.531C15.3943 15.6112 15.3264 15.6873 15.2523 15.7593C15.2194 15.7922 15.1865 15.8231 15.1515 15.8539C15.133 15.8704 15.1124 15.8868 15.0939 15.9033C15.0754 15.9197 14.9973 15.9794 15.0836 15.9115C15.1721 15.8416 15.0878 15.9074 15.0713 15.9177C15.0549 15.93 15.0384 15.9403 15.0199 15.9527C14.9767 15.9815 14.9335 16.0082 14.8882 16.0349C14.7998 16.0864 14.7052 16.1337 14.6105 16.1748C14.6599 16.1542 14.7093 16.1337 14.7586 16.1131C14.5529 16.1995 14.3411 16.2571 14.1189 16.2879C14.1745 16.2797 14.2279 16.2735 14.2835 16.2653C14.0675 16.2921 13.8495 16.2921 13.6314 16.2653C13.687 16.2735 13.7404 16.2797 13.796 16.2879C13.5759 16.2571 13.362 16.1995 13.1563 16.1131C13.2056 16.1337 13.255 16.1542 13.3044 16.1748C13.2097 16.1337 13.1172 16.0884 13.0267 16.0349C12.9876 16.0123 12.9464 15.9876 12.9094 15.9609C12.8889 15.9465 12.8662 15.9321 12.8457 15.9177C12.8251 15.9033 12.7469 15.8436 12.8333 15.9115C12.9218 15.9815 12.8374 15.9136 12.823 15.9033C12.8066 15.8909 12.7922 15.8765 12.7757 15.8642C12.7366 15.8313 12.6996 15.7963 12.6626 15.7593C12.5885 15.6873 12.5207 15.6112 12.4569 15.531C12.3684 15.4199 12.1586 15.3438 12.0208 15.35C11.8686 15.3561 11.6855 15.4055 11.5847 15.531C11.521 15.6112 11.4531 15.6873 11.379 15.7593C11.3461 15.7922 11.3132 15.8231 11.2782 15.8539C11.2597 15.8704 11.2392 15.8868 11.2206 15.9033C11.2021 15.9197 11.124 15.9794 11.2104 15.9115C11.2988 15.8416 11.2145 15.9074 11.198 15.9177C11.1816 15.93 11.1651 15.9403 11.1466 15.9527C11.1034 15.9815 11.0602 16.0082 11.0149 16.0349C10.9265 16.0864 10.8339 16.1337 10.7373 16.1748C10.7866 16.1542 10.836 16.1337 10.8854 16.1131C10.6797 16.1995 10.4678 16.2571 10.2456 16.2879C10.3012 16.2797 10.3547 16.2735 10.4102 16.2653C10.1942 16.2921 9.97617 16.2921 9.75813 16.2653C9.81367 16.2735 9.86715 16.2797 9.92269 16.2879C9.70259 16.2571 9.48867 16.1995 9.28502 16.1131C9.33439 16.1337 9.38376 16.1542 9.43313 16.1748C9.3385 16.1337 9.24594 16.0884 9.15543 16.0349C9.11635 16.0123 9.07521 15.9876 9.03819 15.9609C9.01762 15.9465 8.99499 15.9321 8.97442 15.9177C8.95385 15.9033 8.87569 15.8436 8.96208 15.9115C9.05053 15.9815 8.96619 15.9136 8.95179 15.9033C8.93534 15.8909 8.92094 15.8765 8.90448 15.8642C8.8654 15.8313 8.82837 15.7963 8.79135 15.7593C8.7173 15.6873 8.64942 15.6112 8.58565 15.531C8.4972 15.4199 8.28739 15.3438 8.14957 15.35C7.99735 15.3561 7.81428 15.4055 7.71349 15.531C7.64973 15.6112 7.58185 15.6873 7.50779 15.7593C7.47488 15.7922 7.44197 15.8231 7.407 15.8539C7.38849 15.8704 7.36792 15.8868 7.34941 15.9033C7.33089 15.9197 7.25273 15.9794 7.33912 15.9115C7.42757 15.8416 7.34324 15.9074 7.32678 15.9177C7.31032 15.93 7.29387 15.9403 7.27536 15.9527C7.23216 15.9815 7.18896 16.0082 7.14577 16.0349C7.05732 16.0864 6.96475 16.1337 6.87013 16.1748C6.9195 16.1542 6.96887 16.1337 7.01823 16.1131C6.81253 16.1995 6.60067 16.2571 6.38057 16.2879C6.43611 16.2797 6.48959 16.2735 6.54513 16.2653C6.32297 16.2941 6.09876 16.2921 5.87455 16.2633C5.93009 16.2715 5.98357 16.2777 6.03911 16.2859C5.8293 16.255 5.6236 16.1995 5.42819 16.1193C5.47756 16.1398 5.52692 16.1604 5.57629 16.181C5.4755 16.1378 5.37882 16.0905 5.2842 16.0349C5.24306 16.0102 5.20192 15.9835 5.16078 15.9568C5.13815 15.9424 5.11758 15.9259 5.09496 15.9115C5.00445 15.8498 5.21015 16.002 5.11964 15.93C4.92011 15.7696 4.69385 15.6976 4.44495 15.8025C4.22074 15.8971 4.06647 16.1193 4.06647 16.3661C4.06647 17.1354 4.06647 17.9027 4.06647 18.672C4.06647 19.141 4.06647 19.612 4.06647 20.081C4.06647 20.5212 4.06441 20.9573 4.34005 21.3337C4.64036 21.743 5.08673 21.9899 5.60097 21.9981C5.62977 21.9981 5.66063 21.9981 5.68942 21.9981C5.87455 21.9981 6.05762 21.9981 6.24275 21.9981C6.99149 21.9981 7.74229 21.9981 8.49103 21.9981C9.53598 21.9981 10.5809 21.9981 11.6259 21.9981C12.7037 21.9981 13.7795 21.9981 14.8574 21.9981C15.7028 21.9981 16.5503 21.9981 17.3957 21.9981C17.7495 21.9981 18.1012 22.0022 18.455 21.9981C18.9755 21.9919 19.4321 21.7348 19.7304 21.3131C19.9114 21.056 19.9875 20.7372 19.9875 20.4245C19.9875 20.0934 19.9875 19.7642 19.9875 19.4331C19.9875 18.4745 19.9875 17.518 19.9875 16.5595C19.9875 16.4957 19.9875 16.4319 19.9875 16.3682C19.9875 16.0452 19.7036 15.7367 19.3704 15.7511C19.0248 15.7716 18.743 16.0267 18.743 16.3723Z" fill="#7C7C8D" stroke="#7C7C8D" stroke-width="2" mask="url(#path-1-inside-1_263_1096)"/>
<path d="M19.6585 14.447C19.6585 14.556 19.6503 14.663 19.6379 14.772C19.6462 14.7165 19.6523 14.663 19.6606 14.6075C19.6297 14.8276 19.5721 15.0394 19.4878 15.2431C19.5083 15.1937 19.5289 15.1443 19.5495 15.095C19.4878 15.2369 19.4158 15.3727 19.3314 15.5002C19.3088 15.5352 19.2841 15.5681 19.2615 15.601C19.1998 15.6874 19.3582 15.4858 19.2821 15.5722C19.2327 15.6298 19.1833 15.6874 19.1278 15.7429C19.0743 15.7964 19.0188 15.8499 18.9591 15.8972C18.9221 15.928 18.8378 15.9754 18.9859 15.8787C18.9488 15.9013 18.9159 15.9301 18.881 15.9548C18.7452 16.0474 18.6012 16.1235 18.4511 16.1872C18.5004 16.1667 18.5498 16.1461 18.5992 16.1255C18.4037 16.2057 18.2001 16.2613 17.9903 16.2921C18.0458 16.2839 18.0993 16.2777 18.1549 16.2695C17.9327 16.2983 17.7085 16.3004 17.4863 16.2716C17.5419 16.2798 17.5954 16.286 17.6509 16.2942C17.4308 16.2633 17.2169 16.2057 17.0112 16.1193C17.0605 16.1399 17.1099 16.1605 17.1593 16.1811C17.0647 16.1399 16.9721 16.0947 16.8816 16.0412C16.8425 16.0186 16.8014 15.9939 16.7643 15.9671C16.7438 15.9527 16.7211 15.9383 16.7006 15.9239C16.68 15.9095 16.6018 15.8499 16.6882 15.9178C16.7767 15.9877 16.6923 15.9198 16.6779 15.9095C16.6615 15.8972 16.6471 15.8828 16.6306 15.8705C16.5916 15.8375 16.5545 15.8026 16.5175 15.7655C16.4434 15.6935 16.3756 15.6174 16.3118 15.5372C16.2234 15.4261 16.0135 15.35 15.8757 15.3562C15.7235 15.3624 15.5404 15.4117 15.4396 15.5372C15.3759 15.6174 15.308 15.6935 15.2339 15.7655C15.201 15.7985 15.1681 15.8293 15.1332 15.8602C15.1146 15.8766 15.0941 15.8931 15.0756 15.9095C15.057 15.926 14.9789 15.9856 15.0653 15.9178C15.1537 15.8478 15.0694 15.9136 15.0529 15.9239C15.0365 15.9363 15.02 15.9466 15.0015 15.9589C14.9583 15.9877 14.9151 16.0144 14.8699 16.0412C14.7814 16.0926 14.6868 16.1399 14.5922 16.1811C14.6415 16.1605 14.6909 16.1399 14.7403 16.1193C14.5346 16.2057 14.3227 16.2633 14.1006 16.2942C14.1561 16.286 14.2096 16.2798 14.2651 16.2716C14.0491 16.2983 13.8311 16.2983 13.613 16.2716C13.6686 16.2798 13.7221 16.286 13.7776 16.2942C13.5575 16.2633 13.3436 16.2057 13.1379 16.1193C13.1873 16.1399 13.2366 16.1605 13.286 16.1811C13.1914 16.1399 13.0988 16.0947 13.0083 16.0412C12.9692 16.0186 12.9281 15.9939 12.891 15.9671C12.8705 15.9527 12.8479 15.9383 12.8273 15.9239C12.8067 15.9095 12.7285 15.8499 12.8149 15.9178C12.9034 15.9877 12.8191 15.9198 12.8047 15.9095C12.7882 15.8972 12.7738 15.8828 12.7573 15.8705C12.7183 15.8375 12.6812 15.8026 12.6442 15.7655C12.5702 15.6935 12.5023 15.6174 12.4385 15.5372C12.3501 15.4261 12.1403 15.35 12.0024 15.3562C11.8502 15.3624 11.6671 15.4117 11.5664 15.5372C11.5026 15.6174 11.4347 15.6935 11.3607 15.7655C11.3277 15.7985 11.2948 15.8293 11.2599 15.8602C11.2414 15.8766 11.2208 15.8931 11.2023 15.9095C11.1838 15.926 11.1056 15.9856 11.192 15.9178C11.2804 15.8478 11.1961 15.9136 11.1796 15.9239C11.1632 15.9363 11.1467 15.9466 11.1282 15.9589C11.085 15.9877 11.0418 16.0144 10.9966 16.0412C10.9081 16.0926 10.8135 16.1399 10.7189 16.1811C10.7682 16.1605 10.8176 16.1399 10.867 16.1193C10.6613 16.2057 10.4494 16.2633 10.2273 16.2942C10.2828 16.286 10.3363 16.2798 10.3918 16.2716C10.1758 16.2983 9.9578 16.2983 9.73976 16.2716C9.7953 16.2798 9.84878 16.286 9.90432 16.2942C9.68422 16.2633 9.4703 16.2057 9.2646 16.1193C9.31397 16.1399 9.36333 16.1605 9.4127 16.1811C9.31808 16.1399 9.22552 16.0947 9.13501 16.0412C9.09593 16.0186 9.05479 15.9939 9.01776 15.9671C8.99719 15.9527 8.97457 15.9383 8.954 15.9239C8.93343 15.9095 8.85526 15.8499 8.94165 15.9178C9.0301 15.9877 8.94577 15.9198 8.93137 15.9095C8.91491 15.8972 8.90052 15.8828 8.88406 15.8705C8.84498 15.8375 8.80795 15.8026 8.77093 15.7655C8.69687 15.6935 8.62899 15.6174 8.56523 15.5372C8.47678 15.4261 8.26697 15.35 8.12915 15.3562C7.97693 15.3624 7.79386 15.4117 7.69307 15.5372C7.6293 15.6174 7.56142 15.6935 7.48737 15.7655C7.45446 15.7985 7.42155 15.8293 7.38658 15.8602C7.36807 15.8766 7.3475 15.8931 7.32898 15.9095C7.31047 15.926 7.23231 15.9856 7.3187 15.9178C7.40715 15.8478 7.32281 15.9136 7.30636 15.9239C7.2899 15.9363 7.27345 15.9466 7.25493 15.9589C7.21174 15.9877 7.16854 16.0144 7.12329 16.0412C7.03484 16.0926 6.94022 16.1399 6.8456 16.1811C6.89496 16.1605 6.94433 16.1399 6.9937 16.1193C6.788 16.2057 6.57407 16.2633 6.35398 16.2942C6.40952 16.286 6.463 16.2798 6.51854 16.2716C6.29638 16.3004 6.07217 16.2983 5.85002 16.2695C5.90556 16.2777 5.95904 16.2839 6.01458 16.2921C5.80476 16.2613 5.60112 16.2057 5.40571 16.1255C5.45508 16.1461 5.50445 16.1667 5.55381 16.1872C5.40365 16.1235 5.25967 16.0453 5.12391 15.9548C5.08894 15.9301 5.04985 15.9075 5.019 15.8787C5.04368 15.8972 5.06837 15.9157 5.09305 15.9363C5.07659 15.9239 5.0622 15.9116 5.04574 15.8972C4.98814 15.8478 4.93055 15.7964 4.87707 15.7409C4.82359 15.6853 4.77422 15.6277 4.72279 15.5701C4.64669 15.4817 4.81124 15.6935 4.74336 15.5989C4.72074 15.566 4.69605 15.5331 4.67343 15.4981C4.58703 15.3706 4.51504 15.2328 4.45539 15.0909C4.47596 15.1402 4.49653 15.1896 4.5171 15.239C4.43276 15.0353 4.37517 14.8214 4.34431 14.6033C4.35254 14.6589 4.35871 14.7124 4.36694 14.7679C4.3402 14.5458 4.3402 14.3236 4.36899 14.1014C4.36077 14.157 4.3546 14.2105 4.34637 14.266C4.37722 14.0541 4.43276 13.8505 4.51504 13.653C4.49447 13.7024 4.4739 13.7518 4.45333 13.8011C4.51298 13.6592 4.58498 13.5234 4.67137 13.3959C4.694 13.363 4.71662 13.3301 4.74131 13.2972C4.81124 13.1984 4.64874 13.4082 4.72691 13.3157C4.77833 13.254 4.83181 13.1943 4.88941 13.1367C4.94289 13.0832 5.00049 13.0318 5.05808 12.9824C5.06425 12.9783 5.09305 12.9475 5.09922 12.9495C5.09922 12.9495 4.96963 13.0462 5.03751 12.9968C5.07042 12.9742 5.10334 12.9495 5.13625 12.9269C5.26789 12.8385 5.40777 12.7644 5.55381 12.7027C5.50445 12.7233 5.45508 12.7438 5.40571 12.7644C5.60318 12.6821 5.80682 12.6266 6.01869 12.5957C5.96315 12.604 5.90967 12.6101 5.85413 12.6184C6.07423 12.5896 6.29844 12.5957 6.52059 12.5957C6.81063 12.5957 7.10066 12.5957 7.39275 12.5957C8.32662 12.5957 9.26254 12.5978 10.1964 12.5978C12.239 12.5998 14.2816 12.6019 16.3262 12.6019C16.6821 12.6019 17.04 12.6019 17.3958 12.6019C17.6447 12.6019 17.8977 12.5937 18.1466 12.6245C18.0911 12.6163 18.0376 12.6101 17.9821 12.6019C18.1939 12.6328 18.3976 12.6883 18.595 12.7685C18.5457 12.7479 18.4963 12.7274 18.4469 12.7068C18.5889 12.7665 18.7246 12.8385 18.8522 12.9228C18.8851 12.9454 18.918 12.968 18.9509 12.9927C19.0496 13.0627 18.8398 12.9002 18.9324 12.9783C18.9941 13.0298 19.0538 13.0832 19.1113 13.1408C19.1648 13.1943 19.2163 13.2498 19.2656 13.3095C19.2697 13.3136 19.3006 13.3465 19.2985 13.3506C19.2985 13.3506 19.2019 13.2211 19.2512 13.2889C19.2738 13.3218 19.2985 13.3548 19.3212 13.3877C19.4096 13.5193 19.4837 13.6592 19.5454 13.8032C19.5248 13.7538 19.5042 13.7044 19.4837 13.6551C19.5659 13.8525 19.6215 14.0562 19.6523 14.266C19.6441 14.2105 19.6379 14.157 19.6297 14.1014C19.6503 14.2187 19.6585 14.3318 19.6585 14.447C19.6606 14.77 19.9403 15.0785 20.2756 15.0641C20.6088 15.0497 20.8947 14.7926 20.8927 14.447C20.8906 13.9451 20.7672 13.4555 20.5368 13.0092C20.3188 12.5834 19.9917 12.2358 19.6112 11.9498C19.2677 11.6927 18.8481 11.5076 18.4243 11.4294C18.1261 11.3739 17.8319 11.3657 17.5295 11.3657C15.6412 11.3636 13.7529 11.3636 11.8646 11.3615C10.036 11.3595 8.20731 11.3574 6.38072 11.3574C6.04749 11.3574 5.71631 11.378 5.39337 11.4644C4.92438 11.5899 4.50064 11.8326 4.13656 12.1514C3.43718 12.7644 3.04019 13.7435 3.12658 14.6712C3.17595 15.204 3.33639 15.7306 3.647 16.1708C3.95349 16.6069 4.35871 16.9833 4.84621 17.2116C5.36457 17.4543 5.93847 17.5757 6.51031 17.5078C7.05129 17.442 7.56965 17.2671 8.00984 16.936C8.2176 16.7796 8.4089 16.613 8.5714 16.4094C8.28137 16.4094 7.98927 16.4094 7.69924 16.4094C8.11886 16.9319 8.7483 17.3186 9.40653 17.4523C10.1429 17.6045 10.9081 17.4996 11.5684 17.1376C11.8996 16.9565 12.204 16.7035 12.4406 16.4094C12.1505 16.4094 11.8584 16.4094 11.5684 16.4094C11.988 16.9319 12.6175 17.3186 13.2757 17.4523C14.0121 17.6045 14.7773 17.4996 15.4376 17.1376C15.7688 16.9565 16.0732 16.7035 16.3097 16.4094C16.0197 16.4094 15.7276 16.4094 15.4376 16.4094C16.0341 17.152 17.0153 17.5819 17.9636 17.5222C18.9879 17.4584 19.93 16.9051 20.4607 16.0186C20.7425 15.5454 20.8886 14.9942 20.8927 14.445C20.8947 14.122 20.6068 13.8135 20.2756 13.8279C19.9403 13.8443 19.6606 14.1014 19.6585 14.447Z" fill="#7C7C8D"/>
<path d="M12.7567 8.96336C12.7567 9.84375 12.7567 10.7241 12.7567 11.6045C12.7567 11.7321 12.7567 11.8575 12.7567 11.9851C12.9624 11.7794 13.1681 11.5737 13.3738 11.368C12.4687 11.368 11.5637 11.3659 10.6586 11.3659C10.8643 11.5716 11.07 11.7773 11.2757 11.983C11.2757 11.0944 11.2757 10.2058 11.2757 9.31716C11.2757 9.1814 11.2675 9.04358 11.2798 8.90988C11.2716 8.96542 11.2654 9.0189 11.2572 9.07444C11.2634 9.03741 11.2716 9.00244 11.2839 8.96747C11.2634 9.01684 11.2428 9.06621 11.2222 9.11558C11.2325 9.09089 11.2469 9.06827 11.2572 9.04358C11.3004 8.95308 11.1584 9.15877 11.2263 9.08472C11.2921 9.01273 11.0926 9.16083 11.1852 9.11558C11.2099 9.10324 11.2325 9.09089 11.2572 9.08061C11.2078 9.10118 11.1584 9.12175 11.1091 9.14232C11.144 9.12998 11.179 9.12175 11.216 9.11558C11.1605 9.1238 11.107 9.12998 11.0515 9.1382C11.2675 9.11763 11.4937 9.13409 11.7097 9.13409C12.0429 9.13409 12.3762 9.13409 12.7074 9.13409C12.7958 9.13409 12.8863 9.12998 12.9748 9.1382C12.9192 9.12998 12.8657 9.1238 12.8102 9.11558C12.8472 9.12175 12.8822 9.12998 12.9172 9.14232C12.8678 9.12175 12.8184 9.10118 12.7691 9.08061C12.7937 9.09089 12.8164 9.10529 12.8411 9.11558C12.9316 9.15877 12.7259 9.01684 12.7999 9.08472C12.8719 9.15055 12.7238 8.95102 12.7691 9.04358C12.7814 9.06827 12.7937 9.09089 12.804 9.11558C12.7835 9.06621 12.7629 9.01684 12.7423 8.96747C12.7547 9.00244 12.7629 9.03741 12.7691 9.07444C12.7608 9.0189 12.7547 8.96542 12.7464 8.90988C12.7547 8.92428 12.7567 8.94279 12.7567 8.96336C12.767 9.28631 13.0324 9.59485 13.3738 9.58045C13.6988 9.56605 14.0012 9.30893 13.9909 8.96336C13.9724 8.36067 13.5013 7.89785 12.8966 7.89373C12.7115 7.89167 12.5243 7.89373 12.3392 7.89373C11.9298 7.89373 11.5205 7.88345 11.1111 7.89373C10.5126 7.91019 10.0518 8.37712 10.0415 8.97364C10.0394 9.09089 10.0415 9.2102 10.0415 9.3295C10.0415 9.83963 10.0415 10.3498 10.0415 10.8578C10.0415 11.2322 10.0415 11.6066 10.0415 11.9809C10.0415 12.3142 10.3233 12.598 10.6586 12.598C11.5637 12.598 12.4687 12.6001 13.3738 12.6001C13.707 12.6001 13.9909 12.3162 13.9909 11.983C13.9909 11.1026 13.9909 10.2222 13.9909 9.34184C13.9909 9.21431 13.9909 9.08884 13.9909 8.9613C13.9909 8.63836 13.707 8.32981 13.3738 8.34421C13.0385 8.36067 12.7567 8.61573 12.7567 8.96336Z" fill="#7C7C8D"/>
<path d="M12.9721 5.22741C12.9721 5.30352 12.966 5.37757 12.9557 5.45368C12.9639 5.39814 12.9701 5.34466 12.9783 5.28912C12.9577 5.42694 12.9207 5.55858 12.8672 5.68612C12.8878 5.63675 12.9084 5.58738 12.9289 5.53801C12.8898 5.62852 12.8425 5.71492 12.787 5.7972C12.7747 5.81571 12.7603 5.83422 12.7479 5.85273C12.7088 5.91239 12.8487 5.72931 12.787 5.80131C12.7541 5.83833 12.7232 5.87536 12.6883 5.91033C12.6574 5.94118 12.6224 5.97204 12.5895 6.00084C12.5052 6.07489 12.641 5.96381 12.641 5.96175C12.641 5.96587 12.5792 6.00495 12.5751 6.00906C12.4929 6.0646 12.4065 6.10986 12.316 6.151C12.3653 6.13043 12.4147 6.10986 12.4641 6.08929C12.3365 6.14277 12.2049 6.17979 12.0671 6.20036C12.1226 6.19214 12.1761 6.18597 12.2316 6.17774C12.0815 6.19831 11.9292 6.19831 11.7791 6.17774C11.8346 6.18597 11.8881 6.19214 11.9436 6.20036C11.8058 6.17979 11.6742 6.14277 11.5466 6.08929C11.596 6.10986 11.6454 6.13043 11.6947 6.151C11.6042 6.11191 11.5178 6.0646 11.4356 6.00906C11.4171 5.99672 11.3985 5.98232 11.38 5.96998C11.3204 5.9309 11.5034 6.07077 11.4315 6.00906C11.3944 5.97615 11.3574 5.9453 11.3224 5.91033C11.2916 5.87947 11.2607 5.84451 11.2319 5.81159C11.1579 5.72726 11.269 5.86302 11.271 5.86302C11.2669 5.86302 11.2278 5.80131 11.2237 5.7972C11.1682 5.71492 11.1229 5.62852 11.0818 5.53801C11.1023 5.58738 11.1229 5.63675 11.1435 5.68612C11.09 5.55858 11.053 5.42694 11.0324 5.28912C11.0406 5.34466 11.0468 5.39814 11.055 5.45368C11.0406 5.3426 11.0324 5.22947 11.0468 5.11633C11.0386 5.17187 11.0324 5.22535 11.0242 5.28089C11.0447 5.13073 11.0941 4.9888 11.1517 4.85098C11.1311 4.90035 11.1106 4.94972 11.09 4.99908C11.2566 4.61237 11.4932 4.25651 11.74 3.91711C11.7997 3.83277 11.8634 3.75255 11.9251 3.67027C11.9313 3.66204 11.8161 3.81015 11.8696 3.74227C11.8758 3.73404 11.8819 3.72581 11.8902 3.71758C11.9025 3.70113 11.9169 3.68467 11.9292 3.66822C11.9601 3.62913 11.993 3.58799 12.0239 3.54891C12.1164 3.43372 12.211 3.32058 12.3077 3.20951C12.353 3.15808 12.3982 3.10666 12.4435 3.05523C12.1535 3.05523 11.8614 3.05523 11.5713 3.05523C11.7009 3.19717 11.8264 3.34733 11.9478 3.49543C12.0053 3.56537 12.0629 3.63736 12.1185 3.70935C12.137 3.73198 12.1987 3.8122 12.1226 3.71553C12.0485 3.6209 12.1041 3.6929 12.1226 3.71553C12.1576 3.76078 12.1925 3.80603 12.2254 3.85334C12.353 4.02613 12.4764 4.20303 12.5895 4.38405C12.715 4.58152 12.8302 4.78722 12.9228 5.0032C12.9022 4.95383 12.8816 4.90446 12.8611 4.8551C12.9186 4.99291 12.968 5.1369 12.9886 5.28501C12.9804 5.22947 12.9742 5.17599 12.966 5.12045C12.968 5.15336 12.9721 5.18833 12.9721 5.22741C12.9762 5.55036 13.2539 5.8589 13.5892 5.84451C13.9204 5.83011 14.2104 5.57298 14.2063 5.22741C14.2001 4.66791 13.8978 4.13104 13.6016 3.67439C13.3136 3.23213 12.9865 2.81251 12.6451 2.4114C12.5792 2.33323 12.5114 2.25507 12.4435 2.17896C12.2254 1.94035 11.7873 1.94035 11.5713 2.17896C11.3615 2.4114 11.162 2.65412 10.9707 2.90096C10.5737 3.41315 10.2014 3.93768 9.9566 4.54038C9.66451 5.25621 9.84553 6.03786 10.3186 6.63233C10.8473 7.29674 11.775 7.57032 12.5875 7.35022C13.5378 7.09104 14.1981 6.20448 14.2084 5.22741C14.2104 4.90446 13.9224 4.59592 13.5913 4.61031C13.2519 4.62471 12.9742 4.87978 12.9721 5.22741Z" fill="#7C7C8D"/>
</svg>
