<svg width="506" height="27" viewBox="0 0 506 27" fill="none" xmlns="http://www.w3.org/2000/svg">
<rect y="13" width="230" height="1" fill="#E6E8EC"/>
<path d="M249.42 20.1982C248.5 20.1982 247.697 19.9872 247.011 19.5653C246.325 19.1435 245.792 18.5533 245.413 17.7947C245.033 17.0362 244.844 16.1499 244.844 15.1357C244.844 14.1172 245.033 13.2266 245.413 12.4638C245.792 11.701 246.325 11.1087 247.011 10.6868C247.697 10.2649 248.5 10.054 249.42 10.054C250.341 10.054 251.144 10.2649 251.83 10.6868C252.516 11.1087 253.049 11.701 253.428 12.4638C253.808 13.2266 253.997 14.1172 253.997 15.1357C253.997 16.1499 253.808 17.0362 253.428 17.7947C253.049 18.5533 252.516 19.1435 251.83 19.5653C251.144 19.9872 250.341 20.1982 249.42 20.1982ZM249.427 18.5938C250.023 18.5938 250.518 18.4361 250.91 18.1207C251.302 17.8054 251.592 17.3857 251.779 16.8615C251.971 16.3374 252.067 15.7599 252.067 15.1293C252.067 14.5028 251.971 13.9276 251.779 13.4034C251.592 12.875 251.302 12.451 250.91 12.1314C250.518 11.8118 250.023 11.652 249.427 11.652C248.826 11.652 248.327 11.8118 247.931 12.1314C247.539 12.451 247.247 12.875 247.055 13.4034C246.868 13.9276 246.774 14.5028 246.774 15.1293C246.774 15.7599 246.868 16.3374 247.055 16.8615C247.247 17.3857 247.539 17.8054 247.931 18.1207C248.327 18.4361 248.826 18.5938 249.427 18.5938ZM256.131 20V10.1818H257.978V11.7415H258.08C258.259 11.2131 258.574 10.7976 259.026 10.495C259.482 10.1882 259.998 10.0348 260.573 10.0348C260.692 10.0348 260.833 10.0391 260.995 10.0476C261.161 10.0561 261.291 10.0668 261.385 10.0795V11.9077C261.308 11.8864 261.172 11.8629 260.976 11.8374C260.78 11.8075 260.584 11.7926 260.388 11.7926C259.936 11.7926 259.533 11.8885 259.18 12.0803C258.83 12.2678 258.553 12.5298 258.349 12.8665C258.144 13.1989 258.042 13.5781 258.042 14.0043V20H256.131Z" fill="#777E91"/>
<rect x="276" y="13" width="230" height="1" fill="#E6E8EC"/>
</svg>
